<?xml version="1.0" encoding="utf-8"?>
<!-- Generator: Adobe Illustrator 16.0.0, SVG Export Plug-In . SVG Version: 6.00 Build 0)  -->
<!DOCTYPE svg PUBLIC "-//W3C//DTD SVG 1.1//EN" "http://www.w3.org/Graphics/SVG/1.1/DTD/svg11.dtd">
<svg version="1.1" id="Layer_1" xmlns="http://www.w3.org/2000/svg" xmlns:xlink="http://www.w3.org/1999/xlink" x="0px" y="0px"
	 width="781.207px" height="470.611px" viewBox="-122.714 -71.146 781.207 470.611"
	 enable-background="new -122.714 -71.146 781.207 470.611" xml:space="preserve">
<path fill-rule="evenodd" clip-rule="evenodd" fill="#D8D8D7" d="M1210.714,1147.816c0,0,5.607,129.062-0.67,137.48
	c9.154,1.402,61.686,48.166,105.99,50.504c44.303,2.336,85.693-57.295,102.756-50.504c-9.271-25.252-6.467-142.449-6.467-142.449
	L1210.714,1147.816z"/>
<path fill-rule="evenodd" clip-rule="evenodd" fill="#A4A4A4" d="M1364.585,1176.691c0,0,17.564,21.395,20.881,41.385
	c28.57-22.445,15.475-104.848,15.709-104.504c0.234,0.342-47.111,20.332-47.111,20.332l8.271,41.385L1364.585,1176.691z"/>
<path fill-rule="evenodd" clip-rule="evenodd" fill="#A4A4A4" d="M1312.854,1206.504c11.748-1.754,25.777,9.117,25.777,9.117
	s1.693-21.393,10.316-25.953c8.621-4.559-1.287-65.227-15.65-72.254c-14.365-7.029-21.789,0.963-21.789,0.963
	S1301.104,1208.256,1312.854,1206.504z"/>
<path fill-rule="evenodd" clip-rule="evenodd" fill="#ADADAD" d="M1277.927,1194.229c0,0,19.672,48.398,53.691,29.109
	c-14.029-6.314-25.709-40.684-12.504-62.779c13.205-22.094,5.02-45.717,5.02-45.717l-31.096,0.482L1277.927,1194.229z"/>
<path fill-rule="evenodd" clip-rule="evenodd" fill="#A4A4A4" d="M1251.303,1161.963c0,0,13.326,46.645,7.717,59.27
	c8.768-2.455,12.625-28.057,14.027-29.635s7.715,14.906,11.223,15.607c-6.662-44.191,22.24-64.184,19.188-87.154
	c-3.055-22.971-11.822-34.545-11.822-34.545l-42.799,5.963L1251.303,1161.963z"/>
<path fill-rule="evenodd" clip-rule="evenodd" fill="#ADADAD" d="M1223.241,1158.104c6.102,1.105,14.033,49.803,11.475,63.129
	c23.602-23.146,14.133-67.572,35.176-91.303c21.043-23.731,16.484-57.4,16.484-57.4l-34.021-8.066
	C1252.354,1064.463,1217.139,1157,1223.241,1158.104z"/>
<path fill-rule="evenodd" clip-rule="evenodd" fill="#ADADAD" d="M1329.532,1116.824c24.531,26.9,2.828,84.301,35.402,98.797
	c-2.455-18.236,28.068-86.92-10.521-140.987c-3.857-1.754-31.213,7.642-31.213,7.642S1305.001,1089.924,1329.532,1116.824z"/>
<g>
	
		<path fill-rule="evenodd" clip-rule="evenodd" fill="#231F20" stroke="#000000" stroke-width="1.5" stroke-linecap="round" stroke-linejoin="round" stroke-miterlimit="10" d="
		M1389.87,1258.967c-5.262,30.355-21.771,52.043-51.43,63.414c-10.637,4.082-12.156,2.967-13.023-8.369
		c-0.338-4.432-0.055-8.912-0.055-13.371c0.246,0,0.686-8.939,0.75-13.408c0.008-0.504,0.037-0.994,0.082-1.479
		c-7.145,2.537-14.85,2.691-22.414-0.209c-0.023,0.496-0.051,0.996-0.084,1.504c-0.84,12.502-1.365,25.025-2.055,38.109
		c-33.691-6.84-59.336-35.006-62.566-66.467c-2.746-0.533-5.531-1.049-8.363-1.562c-1.91-0.479-4.244-0.32-6.436-0.564
		c4.109,45.998,44.033,84.143,89.988,84.148c49.455,0.346,85.438-39.961,90.125-82.371
		C1399.538,1258.641,1394.696,1258.799,1389.87,1258.967z"/>
</g>
<path fill-rule="evenodd" clip-rule="evenodd" fill="#FFE2C2" d="M1411.759,1108.203c0,0,112.393,76.088,55.811,174.289
	c-22.914,41.148-62.514,46.158-79.396,41.148c-16.879-5.01-29.592-31.744-14.914-28.758c-7.09-11.223,3.064-15.801,8.947-12.986
	c0,0-8.074-11.244,5.076-14.092c0.281,12.875,12.021,9.373,12.021,9.373c12.152,5.781,36.658,10.34,50.688-42.266
	c14.027-52.609-36.584-96.535-36.584-96.535L1411.759,1108.203z"/>
<path fill-rule="evenodd" clip-rule="evenodd" fill="#ADADAD" d="M1392.862,1045.39c13.006-2.501,19.346,94.735,34.426,120.435
	c-40.684,1.869-63.756-95.979-62.703-96.742C1365.635,1068.321,1379.86,1047.89,1392.862,1045.39z"/>
<path fill-rule="evenodd" clip-rule="evenodd" fill="#FFE2C2" d="M1210.714,1115.93c0,0-106.945,69.662-50.363,167.861
	c22.914,41.15,62.516,46.16,79.396,41.15s29.592-31.744,14.914-28.758c7.09-11.223-3.064-15.801-8.947-12.986
	c0,0,8.076-11.244-5.076-14.092c-0.279,12.873-12.02,9.373-12.02,9.373c-12.152,5.781-36.66,10.34-50.688-42.268
	c-14.029-52.607,36.584-96.535,36.584-96.535L1210.714,1115.93z"/>
<path fill-rule="evenodd" clip-rule="evenodd" fill="#A4A4A4" d="M1215.936,1022.607c0,0-11.629,47.818-31.971,70.264
	c33.318,9.119,53.496-41.385,53.496-41.385l-12.461-34.02L1215.936,1022.607z"/>
<path fill-rule="evenodd" clip-rule="evenodd" fill="#ADADAD" d="M1227.104,1031.322c-29.109,21.567-14.73,154.488-29.461,168.166
	c31.916-18.588,23.85-79.514,29.461-105.516s19.99-32.666,20.342-33.718C1247.796,1059.203,1256.214,1009.754,1227.104,1031.322z"/>
<path fill-rule="evenodd" clip-rule="evenodd" fill="#A4A4A4" d="M1214.516,1179.707c19.602-5.471,26.266-82.277,50.465-107.528
	c-3.857-4.909-19.99-18.237-19.99-18.237s-15.432,11.574-23.146,48.049C1214.128,1138.465,1214.516,1179.707,1214.516,1179.707z"/>
<path fill-rule="evenodd" clip-rule="evenodd" fill="#A4A4A4" d="M1395.096,1026.142c14.027,2.899,12.625,50.245,28.408,56.134
	c-21.395,32.34-39.197-30.088-39.197-30.088S1381.067,1023.242,1395.096,1026.142z"/>
<path fill-rule="evenodd" clip-rule="evenodd" fill="#9D9E9F" d="M1374.085,1058.754c9.088,7.814,1.287,23.045,10.447,45.064
	c9.162,22.02,23.541,17.904,23.541,17.904s-15.432,28.666-37.877,10.779s-21.248-62.076-21.248-62.076l23.002-11.672
	C1371.95,1058.754,1364.995,1050.941,1374.085,1058.754z"/>
<path fill-rule="evenodd" clip-rule="evenodd" fill="#FFE2C2" stroke="#FFE2C2" stroke-miterlimit="10" d="M1397.565,1024.695
	l-1.725-4.539l-10.375-3.975l-31.477-20.553l-34.838-13.656l-64.275,18.8l-30.445,23.923c-4.959,6.303,4.576,35.968,13.031,31.197
	c0.01,0.018,15.895,26.383,76.896,26.383c61.012,0,70.17-26.373,70.174-26.385
	C1392.987,1060.664,1402.522,1030.998,1397.565,1024.695z"/>
<path fill="#FAAB25" d="M1221.844,1007.998c0,0,2.805-54.023,4.207-73.663c1.404-19.64,60.744-63.481,86.76-63.481
	c29.342,0,82.285,42.812,86.494,67.362c4.209,24.55,0,67.678,0,67.678l-84.891-13.327L1221.844,1007.998z"/>
<ellipse transform="matrix(0.9865 -0.1637 0.1637 0.9865 -153.3271 215.6172)" fill-rule="evenodd" clip-rule="evenodd" fill="#EDCEAE" stroke="#FFE2C2" stroke-miterlimit="10" cx="1231.925" cy="1038.356" rx="2.572" ry="7.116"/>
<ellipse transform="matrix(-0.9865 -0.1637 0.1637 -0.9865 2591.4622 2290.2114)" fill-rule="evenodd" clip-rule="evenodd" fill="#EDCEAE" stroke="#FFE2C2" stroke-miterlimit="10" cx="1390.071" cy="1038.356" rx="2.572" ry="7.117"/>
<path fill-rule="evenodd" clip-rule="evenodd" fill="#F16739" d="M1298.819,1115.025c0.482-0.383,6.559,7.521,27.709,1.387
	l-6.848-6.123c-7.584,4.201-14.781-0.658-14.781-0.658L1298.819,1115.025z"/>
<path fill-rule="evenodd" clip-rule="evenodd" fill="#EDCEAE" stroke="#FFE2C2" stroke-miterlimit="10" d="M1329.237,1077.207
	c0,0,1.314-6.365-5.146-9.527c-2.119-1.035-8.363-2.268-9.434,0c-1.072,2.269-3.66,0-3.66,0s-7.086-1.374-10.287,0
	c-8.033,3.451-5.145,9.527-5.145,9.527"/>
<path fill-rule="evenodd" clip-rule="evenodd" fill="#EDCEAE" stroke="#FFE2C2" stroke-miterlimit="10" d="M1304.772,1075.129
	c4.443-28.562,2.018-44.686,3.42-45.209l2.805-4.039l6.451,1.202l-0.371,2.837c-3.273,30.805,1.152,47.287,1.152,47.287"/>
<path fill-rule="evenodd" clip-rule="evenodd" stroke="#231F20" stroke-width="1.5" stroke-linecap="round" stroke-linejoin="round" stroke-miterlimit="10" d="
	M1384.257,1017.362c0,1.821,0.143,3.717-0.053,5.577c-0.111,1.055-0.48,2.524-1.236,2.994c-4.301,2.658-4.18,7.082-4.896,11.223
	c-0.545,3.161-0.967,6.371-1.865,9.436c-2.627,8.955-8.783,14.163-17.896,15.695c-9.062,1.524-17.68-0.152-25.812-4.369
	c-4.727-2.45-8.039-6.267-10.166-11.074c-1.797-4.057-3.432-8.188-5.037-12.324c-1.07-2.752-2.195-5.402-5.756-5.316
	c-3.455,0.082-4.646,2.645-5.762,5.4c-2.082,5.143-4.066,10.354-6.58,15.289c-3.262,6.397-9.523,8.908-15.904,10.969
	c-7.396,2.391-14.902,2.465-22.346,0.274c-7.691-2.267-12.137-7.75-14.072-15.317c-0.957-3.744-1.555-7.584-2.223-11.398
	c-0.6-3.408-1.357-6.562-4.596-8.717c-0.9-0.602-1.016-2.699-1.109-4.137c-0.359-5.503-1.01-4.566,4.168-5.457
	c20.92-3.597,41.623-3.213,61.898,3.787c4.383,1.511,8.711,1.408,13.092,0.122c8.893-2.61,17.84-4.827,27.139-5.655
	C1355.024,1013.488,1376.167,1014.809,1384.257,1017.362z M1351.425,1018.756c-1.324,0-2.67-0.149-3.971,0.025
	c-5.135,0.689-10.344,1.131-15.354,2.352c-3.855,0.938-7.557,3.376-7.834,7.697c-0.609,9.542,1.662,18.499,9.564,24.605
	c7.23,5.586,15.842,6.279,24.615,4.375c4.094-0.889,7.572-2.979,9.898-6.594c4.008-6.232,6.035-13.004,5.154-20.463
	c-0.432-3.662-2.062-6.604-5.408-8.491C1362.891,1019.334,1357.253,1018.621,1351.425,1018.756z M1262.397,1019.374
	c-9.33,1.233-13.244,6.075-12.674,15.446c0.078,1.319,0.271,2.637,0.508,3.938c2.289,12.568,7.955,19.291,20.418,19.965
	c10.875,0.584,21.41-3.501,25.578-13.917c1.148-2.874,2.02-5.905,2.637-8.94c1.553-7.648-1.432-12.793-9.012-14.838
	C1284.618,1019.615,1266.135,1018.879,1262.397,1019.374z"/>
<g>
	<g>
		<path fill-rule="evenodd" clip-rule="evenodd" fill="#848484" d="M1155.438,1243.191c0.271-0.039,0.705-0.105,1.279-0.188
			c0.363,0.896,0.904,1.785,1.074,2.736c0.24,1.387-0.906,1.15-1.617,1.229c-0.289-0.596-0.412-1.4-0.809-1.57
			c-1.41-0.604-1.85-1.883-2.287-3.082c-0.217-0.594,0.088-1.432,0.318-2.102c0.086-0.244,0.641-0.447,0.977-0.445
			c0.262,0.004,0.703,0.324,0.746,0.561C1155.294,1241.246,1155.339,1242.188,1155.438,1243.191z"/>
		<path fill-rule="evenodd" clip-rule="evenodd" fill="#848484" d="M1161.413,1233.068c0.424-0.904,0.678-1.443,1.068-2.279
			c0.666,2.189,1.227,4.123,1.854,6.033c0.184,0.553,0.654,1.016,0.803,1.572c0.107,0.41-0.094,0.9-0.158,1.355
			c-0.406-0.113-0.996-0.094-1.189-0.361c-0.859-1.203-1.936-2.287-1.857-4C1161.971,1234.518,1161.552,1233.627,1161.413,1233.068z
			"/>
		<path fill-rule="evenodd" clip-rule="evenodd" fill="#848484" d="M1174.962,1267.631c-0.549-0.098-1.096-0.195-1.645-0.293
			c1.941-0.498,2.652,0.08,2.949,2.031c0.057,0.381,0.486,0.707,0.932,1.316c-0.432,0.201-0.918,0.639-1.262,0.551
			c-1.023-0.271-2.066-0.631-2.951-1.197c-0.381-0.242-0.385-1.076-0.559-1.643c0.457-0.061,0.918-0.098,1.367-0.193
			c0.42-0.09,0.826-0.244,1.242-0.369C1175.01,1267.766,1174.987,1267.699,1174.962,1267.631z"/>
		<path fill-rule="evenodd" clip-rule="evenodd" fill="#848484" d="M1171.503,1279.662c0.748-0.287,1.168-0.443,1.682-0.639
			c0.174,0.225,0.414,0.438,0.539,0.707c0.67,1.449,1.805,2.492,2.938,3.562c0.258,0.244,0.17,0.852,0.244,1.291
			c-0.477-0.09-1.021-0.066-1.412-0.301c-0.768-0.461-1.576-0.965-2.141-1.643
			C1172.641,1281.789,1172.155,1280.742,1171.503,1279.662z"/>
		<path fill-rule="evenodd" clip-rule="evenodd" fill="#848484" d="M1186.79,1277.926c1.576,0.074,2.436,0.281,2.428,1.596
			c0,0.158,0.1,0.373,0.225,0.469c1.059,0.834,0.488,2.086,0.783,3.113c0.07,0.24-0.359,0.625-0.561,0.943
			c-0.289-0.182-0.68-0.303-0.85-0.562c-0.4-0.605-0.777-1.254-1.014-1.934C1187.427,1280.463,1187.175,1279.334,1186.79,1277.926z"
			/>
		<path fill-rule="evenodd" clip-rule="evenodd" fill="#848484" d="M1178.71,1261.303c1.039-0.48,2.027-0.031,2.061,1.027
			c0.02,0.625,0.158,0.877,0.602,1.223c0.283,0.221,0.496,0.744,0.461,1.104c-0.055,0.557-0.346,1.086-0.539,1.627
			c-0.504-0.289-1.035-0.539-1.494-0.887c-0.184-0.141-0.225-0.49-0.291-0.754
			C1179.237,1263.555,1178.985,1262.465,1178.71,1261.303z"/>
		<path fill-rule="evenodd" clip-rule="evenodd" fill="#848484" d="M1185.341,1292.113c1.686-1.191,2.59-0.312,3.49,0.846
			c0.348,0.447,1.014,0.645,1.664,0.799c0.734,0.678,0.396,1.525-0.281,1.957c-0.344,0.219-1.346-0.115-1.707-0.514
			c-0.607-0.67-0.939-1.588-1.51-2.619C1186.708,1292.502,1186.024,1292.309,1185.341,1292.113z"/>
		<path fill-rule="evenodd" clip-rule="evenodd" fill="#848484" d="M1161.725,1261.959c0.895,1.203,1.82,2.385,2.656,3.631
			c0.18,0.264,0.033,0.748,0.039,1.131c-0.516-0.006-1.324,0.191-1.496-0.057c-0.924-1.326-1.775-2.736-1.631-4.447
			C1161.438,1262.131,1161.583,1262.045,1161.725,1261.959z"/>
		<path fill-rule="evenodd" clip-rule="evenodd" fill="#848484" d="M1166.776,1254.283c0.25-0.459,0.502-0.924,0.711-1.307
			c-0.443-0.438-0.84-0.828-1.508-1.486c2.77,0.629,2.969,2.811,3.803,4.48c0.096,0.189-0.387,0.666-0.604,1.012
			c-0.424-0.336-0.947-0.6-1.242-1.025c-0.33-0.473-0.457-1.09-0.67-1.643C1167.102,1254.303,1166.94,1254.295,1166.776,1254.283z"
			/>
		<path fill-rule="evenodd" clip-rule="evenodd" fill="#848484" d="M1152.309,1223.324c0.809,0.318,1.658,0.371,1.414,1.518
			c-0.053,0.238,0.064,0.721,0.197,0.76c1.363,0.385,0.605,1.568,0.873,2.348c0.064,0.186-0.424,0.561-0.656,0.852
			c-0.195-0.283-0.613-0.643-0.549-0.838c0.379-1.131,0.047-1.719-1.064-2.193
			C1151.337,1225.26,1152.112,1224.287,1152.309,1223.324z"/>
		<path fill-rule="evenodd" clip-rule="evenodd" fill="#848484" d="M1195.456,1299.111c-0.766-0.967-1.422-1.797-2.045-2.586
			c0.25-0.328,0.682-0.896,1.176-1.539C1195.561,1295.238,1196.45,1297.43,1195.456,1299.111z"/>
		<path fill-rule="evenodd" clip-rule="evenodd" fill="#848484" d="M1164.573,1219.277c0.41,1.172,0.84,2.117,1.033,3.111
			c0.062,0.326-0.492,0.771-0.764,1.162c-0.295-0.307-0.75-0.562-0.859-0.924
			C1163.677,1221.604,1163.055,1220.488,1164.573,1219.277z"/>
		<path fill-rule="evenodd" clip-rule="evenodd" fill="#848484" d="M1156.917,1209.527c1.678,0.85,1.955,1.674,1.23,3.457
			C1156.934,1212.932,1156.206,1211.006,1156.917,1209.527z"/>
		<path fill-rule="evenodd" clip-rule="evenodd" fill="#848484" d="M1170.68,1234.973c0.523,0.459,1.148,0.826,1.49,1.373
			c0.215,0.342-0.004,0.951-0.027,1.441c-0.428-0.125-0.873-0.213-1.277-0.396c-0.172-0.078-0.236-0.477-0.391-0.508
			c-1.373-0.271-0.781-0.795-0.209-1.354C1170.425,1235.377,1170.536,1235.172,1170.68,1234.973z"/>
	</g>
	<g>
		<path fill-rule="evenodd" clip-rule="evenodd" fill="#848484" d="M1473.719,1243.191c-0.271-0.039-0.705-0.105-1.277-0.188
			c-0.365,0.896-0.906,1.785-1.074,2.736c-0.242,1.387,0.906,1.15,1.615,1.229c0.289-0.596,0.412-1.4,0.809-1.57
			c1.412-0.604,1.852-1.883,2.289-3.082c0.217-0.594-0.088-1.432-0.32-2.102c-0.084-0.244-0.639-0.447-0.977-0.445
			c-0.26,0.004-0.703,0.324-0.746,0.561C1473.864,1241.246,1473.819,1242.188,1473.719,1243.191z"/>
		<path fill-rule="evenodd" clip-rule="evenodd" fill="#848484" d="M1467.745,1233.068c-0.424-0.904-0.676-1.443-1.066-2.279
			c-0.668,2.189-1.229,4.123-1.854,6.033c-0.186,0.553-0.656,1.016-0.803,1.572c-0.109,0.41,0.094,0.9,0.158,1.355
			c0.406-0.113,0.996-0.094,1.188-0.361c0.861-1.203,1.938-2.287,1.857-4C1467.188,1234.518,1467.608,1233.627,1467.745,1233.068z"
			/>
		<path fill-rule="evenodd" clip-rule="evenodd" fill="#848484" d="M1454.198,1267.631c0.547-0.098,1.096-0.195,1.643-0.293
			c-1.939-0.498-2.652,0.08-2.947,2.031c-0.059,0.381-0.488,0.707-0.934,1.316c0.434,0.201,0.918,0.639,1.262,0.551
			c1.025-0.271,2.068-0.631,2.951-1.197c0.381-0.242,0.385-1.076,0.559-1.643c-0.455-0.061-0.918-0.098-1.367-0.193
			c-0.418-0.09-0.826-0.244-1.24-0.369C1454.147,1267.766,1454.171,1267.699,1454.198,1267.631z"/>
		<path fill-rule="evenodd" clip-rule="evenodd" fill="#848484" d="M1457.657,1279.662c-0.748-0.287-1.17-0.443-1.684-0.639
			c-0.172,0.225-0.412,0.438-0.537,0.707c-0.672,1.449-1.807,2.492-2.939,3.562c-0.258,0.244-0.17,0.852-0.242,1.291
			c0.475-0.09,1.02-0.066,1.41-0.301c0.77-0.461,1.578-0.965,2.141-1.643C1456.518,1281.789,1457.003,1280.742,1457.657,1279.662z"
			/>
		<path fill-rule="evenodd" clip-rule="evenodd" fill="#848484" d="M1442.368,1277.926c-1.574,0.074-2.436,0.281-2.428,1.596
			c0,0.158-0.1,0.373-0.223,0.469c-1.061,0.834-0.488,2.086-0.785,3.113c-0.068,0.24,0.359,0.625,0.561,0.943
			c0.289-0.182,0.68-0.303,0.85-0.562c0.402-0.605,0.777-1.254,1.016-1.934C1441.731,1280.463,1441.983,1279.334,1442.368,1277.926z
			"/>
		<path fill-rule="evenodd" clip-rule="evenodd" fill="#848484" d="M1450.45,1261.303c-1.039-0.48-2.027-0.031-2.061,1.027
			c-0.02,0.625-0.158,0.877-0.604,1.223c-0.283,0.221-0.494,0.744-0.461,1.104c0.055,0.557,0.348,1.086,0.541,1.627
			c0.502-0.289,1.033-0.539,1.492-0.887c0.184-0.141,0.227-0.49,0.293-0.754C1449.923,1263.555,1450.173,1262.465,1450.45,1261.303z
			"/>
		<path fill-rule="evenodd" clip-rule="evenodd" fill="#848484" d="M1443.819,1292.113c-1.688-1.191-2.592-0.312-3.492,0.846
			c-0.348,0.447-1.012,0.645-1.662,0.799c-0.736,0.678-0.398,1.525,0.281,1.957c0.344,0.219,1.344-0.115,1.707-0.514
			c0.607-0.67,0.939-1.588,1.51-2.619C1442.45,1292.502,1443.135,1292.309,1443.819,1292.113z"/>
		<path fill-rule="evenodd" clip-rule="evenodd" fill="#848484" d="M1467.432,1261.959c-0.893,1.203-1.818,2.385-2.654,3.631
			c-0.182,0.264-0.035,0.748-0.041,1.131c0.516-0.006,1.326,0.191,1.496-0.057c0.926-1.326,1.775-2.736,1.633-4.447
			C1467.719,1262.131,1467.577,1262.045,1467.432,1261.959z"/>
		<path fill-rule="evenodd" clip-rule="evenodd" fill="#848484" d="M1462.384,1254.283c-0.252-0.459-0.502-0.924-0.711-1.307
			c0.443-0.438,0.84-0.828,1.506-1.486c-2.768,0.629-2.969,2.811-3.803,4.48c-0.094,0.189,0.389,0.666,0.604,1.012
			c0.424-0.336,0.949-0.6,1.242-1.025c0.332-0.473,0.459-1.09,0.672-1.643C1462.057,1254.303,1462.218,1254.295,1462.384,1254.283z"
			/>
		<path fill-rule="evenodd" clip-rule="evenodd" fill="#848484" d="M1476.848,1223.324c-0.807,0.318-1.658,0.371-1.414,1.518
			c0.053,0.238-0.062,0.721-0.197,0.76c-1.363,0.385-0.604,1.568-0.873,2.348c-0.064,0.186,0.424,0.561,0.656,0.852
			c0.197-0.283,0.613-0.643,0.551-0.838c-0.379-1.131-0.047-1.719,1.064-2.193
			C1477.823,1225.26,1477.048,1224.287,1476.848,1223.324z"/>
		<path fill-rule="evenodd" clip-rule="evenodd" fill="#848484" d="M1433.704,1299.111c0.764-0.967,1.42-1.797,2.043-2.586
			c-0.248-0.328-0.682-0.896-1.174-1.539C1433.598,1295.238,1432.708,1297.43,1433.704,1299.111z"/>
		<path fill-rule="evenodd" clip-rule="evenodd" fill="#848484" d="M1464.587,1219.277c-0.41,1.172-0.842,2.117-1.033,3.111
			c-0.064,0.326,0.49,0.771,0.762,1.162c0.297-0.307,0.752-0.562,0.859-0.924
			C1465.481,1221.604,1466.102,1220.488,1464.587,1219.277z"/>
		<path fill-rule="evenodd" clip-rule="evenodd" fill="#848484" d="M1472.243,1209.527c-1.678,0.85-1.957,1.674-1.232,3.457
			C1472.223,1212.932,1472.952,1211.006,1472.243,1209.527z"/>
		<path fill-rule="evenodd" clip-rule="evenodd" fill="#848484" d="M1458.479,1234.973c-0.523,0.459-1.15,0.826-1.49,1.373
			c-0.217,0.342,0.004,0.951,0.025,1.441c0.43-0.125,0.875-0.213,1.277-0.396c0.174-0.078,0.238-0.477,0.393-0.508
			c1.373-0.271,0.781-0.795,0.209-1.354C1458.735,1235.377,1458.624,1235.172,1458.479,1234.973z"/>
	</g>
</g>
<path fill-rule="evenodd" clip-rule="evenodd" fill="#353837" d="M1351.425,1018.756c-1.324,0-2.67-0.149-3.971,0.025
	c-5.135,0.689-10.344,1.131-15.354,2.352c-3.855,0.938-7.557,3.376-7.834,7.697c-0.609,9.542,1.662,18.499,9.564,24.605
	c7.23,5.586,15.842,6.279,24.615,4.375c4.094-0.889,7.572-2.979,9.898-6.594c4.008-6.232,6.035-13.004,5.154-20.463
	c-0.432-3.662-2.062-6.604-5.408-8.491C1362.891,1019.334,1357.253,1018.621,1351.425,1018.756z"/>
<path fill-rule="evenodd" clip-rule="evenodd" fill="#353837" d="M1262.397,1019.374c-9.33,1.233-13.244,6.075-12.674,15.446
	c0.078,1.319,0.271,2.637,0.508,3.938c2.289,12.568,7.955,19.291,20.418,19.965c10.875,0.584,21.41-3.501,25.578-13.917
	c1.148-2.874,2.02-5.905,2.637-8.94c1.553-7.648-1.432-12.793-9.012-14.838C1284.618,1019.615,1266.135,1018.879,1262.397,1019.374z
	"/>
<circle fill-rule="evenodd" clip-rule="evenodd" fill="#231F20" stroke="#000000" stroke-width="1.5" stroke-linecap="round" stroke-linejoin="round" stroke-miterlimit="10" cx="1309.828" cy="929.514" r="37.22"/>
<g>
	
		<path fill-rule="evenodd" clip-rule="evenodd" fill="#FAAB25" stroke="#231F20" stroke-width="1.5" stroke-linecap="round" stroke-linejoin="round" stroke-miterlimit="10" d="
		M1334.507,941.513c-2.402,0.251-4.352,1.055-5.459-2.015c-0.412-1.147-2.781-2.163-4.295-2.214
		c-2.449-0.081-3.613,1.929-4.049,4.462c-6.863,0-13.672,0.021-20.48-0.043c-0.479-0.006-1.219-0.546-1.381-1.001
		c-0.812-2.272-2.219-3.728-4.738-3.549c-2.627,0.187-3.83,1.989-4.311,4.474c-1.094,0-2.092,0-3.123,0
		c-1.592-5.311,1.379-11.167-1.625-15.874c0.584-2.687,1.137-5.238,1.793-8.253c0.514-0.041,1.488-0.188,2.465-0.188
		c10.939-0.017,21.879,0.03,32.816-0.05c1.914-0.014,3.137,0.481,3.955,2.295c0.994,2.208,2.193,4.33,3.41,6.43
		c0.449,0.772,1.072,1.684,1.834,1.992c2.803,1.141,3.512,3.141,3.236,5.975C1334.319,936.352,1334.507,938.791,1334.507,941.513z
		 M1289.462,933.238c7.488,0,14.467,0,21.762,0c0-3.698,0.078-7.237-0.088-10.766c-0.023-0.527-1.184-1.425-1.83-1.436
		c-6.252-0.108-12.506-0.064-18.758-0.064c0,0.16-0.002,0.321-0.004,0.482c6.461,0,12.92,0,19.91,0
		c-1.021,1.164-2.035,1.811-2.258,2.664c-1.008,3.859-4.176,1.248-6.191,2.074c-1.299,0.531-3.146-0.441-4.744-0.42
		c-1.68,0.022-3.613,1.078-4.979,0.536c-3.32-1.319-2.793,0.759-2.814,2.575C1289.448,930.264,1289.462,931.645,1289.462,933.238z
		 M1318.014,920.727c-0.812,0.183-2.914,0.115-3.236,0.842c-0.617,1.389-0.447,3.275-0.111,4.851
		c0.098,0.453,1.867,0.582,2.883,0.794c0.445,0.092,0.926,0.016,1.389,0.016c3.852-0.004,3.67-0.011,3.809-3.797
		C1322.885,919.73,1320.268,921.186,1318.014,920.727z M1329.106,927.075c-1.338-2.346-2.434-4.264-3.904-6.842
		c0,2.835,0,4.765,0,6.842C1326.438,927.075,1327.524,927.075,1329.106,927.075z"/>
	
		<path fill-rule="evenodd" clip-rule="evenodd" fill="#FAAB25" stroke="#231F20" stroke-width="1.5" stroke-linecap="round" stroke-linejoin="round" stroke-miterlimit="10" d="
		M1325.221,945.023c-1.875-0.101-3.189-1.23-3.301-3.262s1.037-3.357,3.148-3.564c1.986-0.195,3.695,1.391,3.713,3.338
		C1328.798,943.359,1327.262,944.956,1325.221,945.023z"/>
	
		<path fill-rule="evenodd" clip-rule="evenodd" fill="#FAAB25" stroke="#231F20" stroke-width="1.5" stroke-linecap="round" stroke-linejoin="round" stroke-miterlimit="10" d="
		M1294.419,938.16c2.18,0.223,3.348,1.383,3.432,3.444c0.078,1.932-1.73,3.594-3.645,3.39c-2.086-0.222-3.186-1.5-3.123-3.574
		C1291.147,939.279,1292.481,938.309,1294.419,938.16z"/>
</g>
<path fill-rule="evenodd" clip-rule="evenodd" fill="#949495" d="M1307.372,1081.394c0,0,12.455-10.407,32.344-8.364
	c19.887,2.045,20.631,27.695,50.15,30.484C1362.764,1155,1302.911,1111.135,1307.372,1081.394z"/>
<path fill-rule="evenodd" clip-rule="evenodd" fill="#9D9E9F" d="M1316.803,1081.394c-2.051-6.387-12.455-10.407-32.342-8.364
	c-19.889,2.045-20.633,27.695-50.152,30.484C1261.413,1155,1324.485,1108.502,1316.803,1081.394z"/>
<path fill="#F16739" d="M1212.239,1009.888c23.334-24.188,75.754-35.071,100.305-35.772c24.549-0.702,84.494,17.878,100.303,42.786
	c9.627,15.169-3.918,19.168-18.236,9.119c-15.254-10.706-42.086-29.788-82.066-29.788c-39.982,0-58.26,15.751-77.859,26.01
	C1215.061,1032.513,1200.917,1021.625,1212.239,1009.888z"/>
<path fill-rule="evenodd" clip-rule="evenodd" fill="#231F20" stroke="#000000" stroke-width="1.5" stroke-linecap="round" stroke-linejoin="round" stroke-miterlimit="10" d="
	M1239.075,1258.691c-0.145-1.406-0.262-2.82-0.314-4.238c-0.242-6.434,1.637-9.922,8.439-8.41
	c12.488,2.775,24.941,5.748,37.318,8.986c1.566,0.406,2.664,2.838,3.85,4.428c2.637,3.549,4.439,8.531,7.941,10.459
	c6.928,3.812,7.766,9.211,7.471,15.629c7.564,2.9,15.27,2.746,22.414,0.209c0.609-6.613,4.547-11.559,7.762-17.352
	c9.92-17.881,27.479-16.482,43.111-20.41c1.768-0.445,3.672-0.316,5.477-0.639c6.371-1.139,8.805,1.516,7.928,7.809
	c-0.18,1.285-0.385,2.549-0.602,3.805c4.826-0.168,9.668-0.326,14.52-0.625c0.326-2.943,0.504-5.898,0.521-8.85
	c0.301-49.822-41.586-92.885-90.096-93.01c-48.559-0.125-90.975,42.996-90.895,92.412c0.004,2.578,0.129,5.135,0.355,7.67
	c2.191,0.244,4.525,0.086,6.436,0.564C1233.544,1257.643,1236.329,1258.158,1239.075,1258.691z M1246.2,1214.814
	c12.465-26.861,41.705-45.021,71.047-43.727c30.055,1.326,57.842,21.553,67.98,49.537c0.418,1.158,0.457,2.457,0.885,4.898
	c-15.379,2.377-30.305,4.816-45.289,6.82c-1.775,0.238-4.201-1.58-5.768-3.039c-12.777-11.914-28.072-11.932-40.922-0.199
	c-1.848,1.688-5.066,3.275-7.309,2.896c-12.117-2.047-24.168-4.555-36.152-7.277
	C1245.393,1223.523,1243.575,1220.482,1246.2,1214.814z"/>
<g>
	<g>
		<path fill="#231F20" d="M702.286,1202.928h53.834v13.301h-19v101.018h-15.833v-101.018h-19.001V1202.928z"/>
	</g>
	<g>
		<path fill="#231F20" d="M762.927,1202.928h24.543c23.117,0,25.492,6.176,25.492,31.193c0,15.357-2.059,22.008-15.043,25.967v0.316
			c10.768,1.109,14.409,6.65,14.409,17.416v24.859c0,4.117,0,9.816,0.95,14.566h-14.884c-1.583-2.85-1.899-5.699-1.899-10.291
			v-25.809c0-10.768-1.9-13.617-12.351-13.617h-5.384v49.717h-15.834V1202.928z M778.76,1254.229h4.117
			c12.508,0,14.25-2.375,14.25-19.475c0-16.941-0.95-18.525-10.768-18.525h-7.6V1254.229z"/>
	</g>
	<g>
		<path fill="#231F20" d="M877.719,1291.438c0,13.301-5.226,26.76-26.759,26.76c-21.691,0-26.918-13.459-26.918-26.76v-88.51h15.834
			v91.201c0,7.76,2.851,11.717,11.084,11.717c8.076,0,10.926-3.957,10.926-11.717v-91.201h15.833V1291.438z"/>
	</g>
	<g>
		<path fill="#231F20" d="M887.218,1232.062c0-15.992,5.227-30.084,26.76-30.084c15.675,0,22.959,7.916,22.959,20.742v11.4h-14.885
			v-7.916c0-7.285-2.533-11.877-9.184-11.877c-8.232,0-9.816,5.859-9.816,19.635v56.051c0,13.457,4.275,15.832,9.342,15.832
			c5.859,0,9.658-4.115,9.658-13.615v-7.918h14.885v12.668c0,12.033-4.909,21.217-23.275,21.217
			c-19.951,0-26.443-10.609-26.443-28.342V1232.062z"/>
	</g>
	<g>
		<path fill="#231F20" d="M944.692,1202.928h15.834v52.094h0.316l25.017-52.094h15.833l-26.6,53.678l28.5,60.641h-17.733
			l-25.017-57.158h-0.316v57.158h-15.834V1202.928z"/>
	</g>
	<g>
		<path fill="#231F20" d="M1009.134,1202.928h43.068v13.301h-27.234v35.783h25.65v13.301h-25.65v38.635h27.234v13.299h-43.068
			V1202.928z"/>
	</g>
	<g>
		<path fill="#231F20" d="M1059.007,1202.928h24.543c23.117,0,25.492,6.176,25.492,31.193c0,15.357-2.059,22.008-15.043,25.967
			v0.316c10.768,1.109,14.408,6.65,14.408,17.416v24.859c0,4.117,0,9.816,0.951,14.566h-14.883c-1.584-2.85-1.9-5.699-1.9-10.291
			v-25.809c0-10.768-1.9-13.617-12.352-13.617h-5.383v49.717h-15.834V1202.928z M1074.841,1254.229h4.117
			c12.508,0,14.25-2.375,14.25-19.475c0-16.941-0.949-18.525-10.768-18.525h-7.6V1254.229z"/>
	</g>
</g>
<path fill="#FFFFFF" d="M920.53,1071.535"/>
<path fill="#231F20" d="M838.864,1076.613c5.297-6.793,9.301-12.93,14.945-19.793c5.688-6.984,13.043-13.381,18.652-18.205
	c7.84-6.725,12.863-9.007,17.969-11.773c1.352-0.709-0.172-1.555-0.578-1.555c-28.516-5.359-58.164-12.293-86.488-1.799
	c-19.625,7.312-28.207,22.872-24.082,33.262c2.938,7.383,12.645,8.575,21.719,4.133c7.539-3.7,14.516-9.646,19.469-17.322
	c2.766-4.254,8.59-1.176,5.445,6.223c-8.281,19.484-24.125,34.922-43.41,35.578c-16.414,0.537-27.004-11.548-26.969-26.433
	c0.051-29.39,32.777-48.751,67.152-51.64c41.406-3.422,77.68,7.607,132.172,12.586c41.756,3.82,81.793,3.891,123.75-3.371
	c4.951-0.812,8.434,1.574,8.111,5.359c-0.41,5.463-6.004,10.719-19.846,16.406c-15.721,6.5-32.146,8.471-49.336,8.574
	c-41.525,0.26-86.344-11.945-116.543-18.515c0.043,1.331,0.379,2.905-0.727,3.733c-16.727,12.344-31.844,24.878-41.977,42.477
	l-7.961,11.809c-14.961,24.67-30.938,51.275-48.473,69.082c-18.82,19.104-34.457,24.133-51.062,24.271
	c-20.855,0.139-39.234-12.758-41.336-35.059c-1.172-12.379,2.316-23.391,9.32-32.467c6.207-8.092,16.719-14.816,25.602-16.459
	c2.898-0.518,6.785-0.189,8.395,1.729c2.523,2.939,1.789,6.154-0.719,7.451c-6.793,3.459-14.953,9.389-18.988,17.479
	c-3.285,6.604-3.941,14.574,1.062,22.162c8.375,12.656,31.723,13.002,53.438-7.174c5.367-4.926,10.18-9.682,15.074-15.281
	C812.204,1111.139,838.864,1076.613,838.864,1076.613z"/>
<path fill="#231F20" d="M948.83,1065.566c-24.898,4.808-55.784,6.748-72.853,3.323c-8.657-1.737-25.576-7.712-37.308-7.298
	c-4.856,0.171-9.486,1.115-13.892,3.945c-3.879,2.479-5.43,4.713-5.514,6.998c-0.07,1.584,0.928,2.553,2.322,2.18
	c11.812-3.344,23.33-4.586,35.076-2.229c12.58,2.525,31.434,12.483,56.155,11.85c10.233-0.26,19.99-1.623,29.276-5.676
	c8.176-3.545,11.445-6.738,11.627-9.996C953.868,1066.406,951.768,1065.025,948.83,1065.566z"/>
<path fill="#231F20" d="M1128.628,1057.986c0.502-0.864-0.018-1.504-1.123-1.504c-5.758,0-13.312,0-19.311,0
	c-1.418,0-2.162,0.173-2.836,1.504c-2.213,4.236-29.197,44.672-34.211,52.521c-0.846,1.191-1.883,1.02-2.004-0.346
	c-0.502-4.651-4.529-10.011-10.875-12.569c-4.84-1.971-9.561-2.316-14.469-1.677c-8.869,1.193-16.787,5.877-23.736,11.15
	c-8.549,6.5-16.199,14.496-25.033,21.385l-9.828,20.746c2.662-1.244,5.031-2.584,6.854-3.891c1.418-0.984,1.678,0.658,1.643,0.916
	c-2.195,11.74,0.502,25.639,12.172,31.412c13.969,6.881,29.303-2.783,38.119-11.529c0.865-0.83,1.797-0.744,1.885,1.07
	c0.189,3.338,1.693,7.279,4.443,10.062c7.398,7.416,22.318,4.477,37.289-7.123c9.627-7.416,19.689-17.893,28.766-29.01
	c0.346-0.432,0.588-1.123-0.053-1.814c-1.383-1.451-3.389-3.111-4.754-4.391c-0.641-0.52-1.557-0.363-2.074,0.035
	c-9.318,8.85-17.703,18.947-29.82,27.314c-4.098,2.852-10.598,5.15-13.535,1.191c-1.143-1.537-1.004-3.664,0.121-6.447
	C1069.782,1148.178,1125.723,1063.018,1128.628,1057.986z M1056.608,1131.996c-2.385,5.1-4.562,8.039-7.555,12.465
	c-2.73,4.096-5.826,7.277-9.559,10.355c-5.637,4.666-13.484,9.75-19.951,6.326c-2.887-1.486-4.131-5.514-4.08-8.764
	c0.156-9.182,4.219-18.586,11.756-27.834c9.18-11.307,19.328-17.168,25.984-13.951
	C1060.085,1113.879,1059.684,1125.736,1056.608,1131.996c-0.225,0.482-0.242,0.898-0.121,1.295
	C1056.591,1133.949,1056.938,1131.305,1056.608,1131.996z"/>
<path fill="#231F20" d="M946.055,1111.143c-6.449,5.17-10.543,1.195-15.84,8.244c-2.314,3.08-4.559-0.34-4.766-1.879
	c-0.111-4.594-0.881-9.084-2.277-13.032l0.002-0.003c-0.639-2.276-1.572-4.154-2.734-5.697c-0.125-0.2-0.238-0.417-0.369-0.611
	c-0.332-0.486-0.773-0.895-1.273-1.219c-11.964-11.146-38.443,0.963-44.85,4.898c-16.75,10.289-28.955,27.455-32.76,37.066
	c-1.832,4.617-3.406,7.504-5.438,10.062c-2.73,3.439-6.164,6.553-12.438,12.066c-0.562,0.502-0.984,1.557-0.512,2.541
	c0.641,1.332,3.898,5.93,4.824,6.346c1.027,0.5,2.203-0.209,2.688-0.537c4.391-2.99,9.629-7.693,12.207-10.891
	c0.898-1.107,1.832-0.641,2.309,1.02c2.395,8.559,8.676,15.543,17.363,18.463c15.898,5.377,32.379-2.385,44.828-15.904
	c7.91-8.574,10.762-14.107,13.797-17.857c4.414-5.48,12.559-16.787,22.43-25.664C943.247,1118.555,948.856,1108.91,946.055,1111.143
	z M904.391,1138.842c-4.043,9.561-11.918,18.188-21.176,21.107c-6.094,1.938-12.441,0.986-16.363-4.424
	c-5.387-7.451-3.295-20.5,4.812-31.205c13.564-17.912,45.299-25.811,36.073,5.537
	C906.76,1132.949,905.604,1135.969,904.391,1138.842z"/>
<path fill="#231F20" d="M1024.509,1104.137c-6.449,5.168-11.577,7.682-18.404,14.756c-3.001,3.107-3.995,0.154-4.202-1.385
	c-0.11-4.594-0.881-9.084-2.276-13.032l0.002-0.003c-0.639-2.276-1.572-4.154-2.734-5.697c-0.126-0.2-0.239-0.417-0.37-0.611
	c-0.332-0.486-0.772-0.895-1.272-1.219c-11.965-11.146-38.444,0.963-44.851,4.898c-16.75,10.289-28.955,27.455-32.76,37.066
	c-1.832,4.617-3.406,7.504-5.438,10.062c-2.73,3.439-6.164,6.553-12.438,12.066c-0.562,0.502-0.984,1.557-0.512,2.541
	c0.641,1.332,17.141-21.896,19.719-25.094c0.898-1.107-1.325,10.123,2.309,21.031c2.808,8.432,8.676,15.543,17.363,18.463
	c15.898,5.377,32.379-2.385,44.828-15.904c7.91-8.574,10.762-14.107,13.797-17.857c4.414-5.48,12.559-16.787,22.43-25.664
	C1019.699,1118.555,1027.309,1101.906,1024.509,1104.137z M980.844,1138.842c-4.043,9.561-11.918,18.188-21.176,21.107
	c-6.094,1.938-12.441,0.986-16.363-4.424c-5.387-7.451-3.294-20.5,4.812-31.205c13.564-17.912,45.3-25.811,36.073,5.537
	C983.212,1132.949,982.057,1135.969,980.844,1138.842z"/>
<path fill="#231F20" d="M915.895,1151.129c0,0,2.86-4.762,3.533-0.406c0.672,4.355,9.592-0.715,9.592-0.715l-3.333-11.934
	l-7.167,0.99"/>
<path fill="#231F20" d="M989.537,1154.928c0,0,3.237-4.48,3.48-0.08c0.262,4.734,9.642-0.98,9.642-0.98l-3.332-11.932l-7.168,0.988"
	/>
<g>
	<path fill-rule="evenodd" clip-rule="evenodd" fill="#D8D8D7" d="M385.713,205.816c0,0,5.608,129.062-0.669,137.48
		c9.154,1.402,61.685,48.166,105.99,50.504c44.303,2.336,85.693-57.295,102.756-50.504c-9.271-25.252-6.467-142.449-6.467-142.449
		L385.713,205.816z"/>
	<path fill-rule="evenodd" clip-rule="evenodd" fill="#A4A4A4" d="M539.585,234.691c0,0,17.564,21.395,20.881,41.385
		c28.57-22.445,15.475-104.848,15.709-104.504c0.234,0.342-47.111,20.332-47.111,20.332l8.271,41.385L539.585,234.691z"/>
	<path fill-rule="evenodd" clip-rule="evenodd" fill="#A4A4A4" d="M487.854,264.504c11.748-1.754,25.777,9.117,25.777,9.117
		s1.693-21.393,10.316-25.953c8.621-4.559-1.287-65.227-15.65-72.254c-14.365-7.029-21.789,0.963-21.789,0.963
		S476.104,266.256,487.854,264.504z"/>
	<path fill-rule="evenodd" clip-rule="evenodd" fill="#ADADAD" d="M452.927,252.229c0,0,19.672,48.398,53.691,29.109
		c-14.029-6.314-25.709-40.684-12.504-62.779c13.205-22.094,5.02-45.717,5.02-45.717l-31.096,0.482L452.927,252.229z"/>
	<path fill-rule="evenodd" clip-rule="evenodd" fill="#A4A4A4" d="M426.303,219.963c0,0,13.326,46.645,7.717,59.27
		c8.768-2.455,12.625-28.057,14.027-29.635s7.715,14.906,11.223,15.607c-6.662-44.191,22.24-64.184,19.188-87.154
		c-3.055-22.971-11.822-34.545-11.822-34.545l-42.799,5.963L426.303,219.963z"/>
	<path fill-rule="evenodd" clip-rule="evenodd" fill="#ADADAD" d="M398.241,216.104c6.102,1.105,14.033,49.803,11.475,63.129
		c23.602-23.146,14.133-67.572,35.176-91.303c21.043-23.731,16.484-57.4,16.484-57.4l-34.021-8.066
		C427.354,122.463,392.139,215,398.241,216.104z"/>
	<path fill-rule="evenodd" clip-rule="evenodd" fill="#ADADAD" d="M504.532,174.824c24.531,26.9,2.828,84.301,35.402,98.797
		c-2.455-18.236,28.068-86.92-10.521-140.987c-3.857-1.754-31.213,7.642-31.213,7.642S480.001,147.924,504.532,174.824z"/>
	<g>
		
			<path fill-rule="evenodd" clip-rule="evenodd" fill="#231F20" stroke="#000000" stroke-width="1.5" stroke-linecap="round" stroke-linejoin="round" stroke-miterlimit="10" d="
			M564.87,316.967c-5.262,30.355-21.771,52.043-51.43,63.414c-10.637,4.082-12.156,2.967-13.023-8.369
			c-0.338-4.432-0.055-8.912-0.055-13.371c0.246,0,0.686-8.939,0.75-13.408c0.008-0.504,0.037-0.994,0.082-1.479
			c-7.145,2.537-14.85,2.691-22.414-0.209c-0.023,0.496-0.051,0.996-0.084,1.504c-0.84,12.502-1.365,25.025-2.055,38.109
			c-33.691-6.84-59.336-35.006-62.566-66.467c-2.746-0.533-5.531-1.049-8.363-1.562c-1.91-0.479-4.244-0.32-6.436-0.564
			c4.109,45.998,44.033,84.143,89.988,84.148c49.455,0.346,85.438-39.961,90.125-82.371
			C574.538,316.641,569.696,316.799,564.87,316.967z"/>
	</g>
	<path fill-rule="evenodd" clip-rule="evenodd" fill="#FFE2C2" d="M586.759,166.203c0,0,112.393,76.088,55.811,174.289
		c-22.914,41.148-62.514,46.158-79.396,41.148c-16.879-5.01-29.592-31.744-14.914-28.758c-7.09-11.223,3.064-15.801,8.947-12.986
		c0,0-8.074-11.244,5.076-14.092c0.281,12.875,12.021,9.373,12.021,9.373c12.152,5.781,36.658,10.34,50.688-42.266
		c14.027-52.609-36.584-96.535-36.584-96.535L586.759,166.203z"/>
	<path fill-rule="evenodd" clip-rule="evenodd" fill="#ADADAD" d="M567.862,103.39c13.006-2.501,19.346,94.735,34.426,120.435
		c-40.684,1.869-63.756-95.979-62.703-96.742C540.635,126.321,554.86,105.89,567.862,103.39z"/>
	<path fill-rule="evenodd" clip-rule="evenodd" fill="#FFE2C2" d="M385.713,173.93c0,0-106.945,69.662-50.362,167.861
		c22.914,41.15,62.515,46.16,79.396,41.15s29.592-31.744,14.914-28.758c7.09-11.223-3.064-15.801-8.947-12.986
		c0,0,8.076-11.244-5.076-14.092c-0.279,12.873-12.02,9.373-12.02,9.373c-12.152,5.781-36.66,10.34-50.688-42.268
		s36.584-96.535,36.584-96.535L385.713,173.93z"/>
	<path fill-rule="evenodd" clip-rule="evenodd" fill="#A4A4A4" d="M390.936,80.607c0,0-11.628,47.818-31.97,70.264
		c33.318,9.119,53.496-41.385,53.496-41.385l-12.461-34.02L390.936,80.607z"/>
	<path fill-rule="evenodd" clip-rule="evenodd" fill="#ADADAD" d="M402.104,89.322c-29.11,21.567-14.73,154.488-29.46,168.166
		c31.916-18.588,23.849-79.514,29.46-105.516s19.99-32.666,20.342-33.718C422.796,117.203,431.214,67.754,402.104,89.322z"/>
	<path fill-rule="evenodd" clip-rule="evenodd" fill="#A4A4A4" d="M389.517,237.707c19.601-5.471,26.265-82.277,50.464-107.528
		c-3.857-4.909-19.99-18.237-19.99-18.237s-15.432,11.574-23.146,48.049C389.127,196.465,389.517,237.707,389.517,237.707z"/>
	<path fill-rule="evenodd" clip-rule="evenodd" fill="#A4A4A4" d="M570.096,84.142c14.027,2.899,12.625,50.245,28.408,56.134
		c-21.395,32.34-39.197-30.088-39.197-30.088S556.067,81.242,570.096,84.142z"/>
	<path fill-rule="evenodd" clip-rule="evenodd" fill="#9D9E9F" d="M549.085,116.754c9.088,7.814,1.287,23.045,10.447,45.064
		c9.162,22.02,23.541,17.904,23.541,17.904s-15.432,28.666-37.877,10.779s-21.248-62.076-21.248-62.076l23.002-11.672
		C546.95,116.754,539.995,108.941,549.085,116.754z"/>
	<path fill-rule="evenodd" clip-rule="evenodd" fill="#FFE2C2" stroke="#FFE2C2" stroke-miterlimit="10" d="M572.565,82.695
		l-1.725-4.539l-10.375-3.975l-31.477-20.553l-34.838-13.656l-64.275,18.8L399.43,82.695c-4.959,6.303,4.576,35.968,13.031,31.197
		c0.01,0.018,15.895,26.383,76.896,26.383c61.012,0,70.17-26.373,70.174-26.385C567.987,118.664,577.522,88.998,572.565,82.695z"/>
	<path fill="#FAAB25" d="M396.844,65.998c0,0,2.805-54.023,4.207-73.663c1.404-19.64,60.744-63.481,86.76-63.481
		c29.342,0,82.285,42.812,86.494,67.362c4.209,24.55,0,67.678,0,67.678l-84.891-13.327L396.844,65.998z"/>
	
		<ellipse transform="matrix(0.9865 -0.1637 0.1637 0.9865 -10.283 67.8965)" fill-rule="evenodd" clip-rule="evenodd" fill="#EDCEAE" stroke="#FFE2C2" stroke-miterlimit="10" cx="406.925" cy="96.356" rx="2.572" ry="7.116"/>
	
		<ellipse transform="matrix(-0.9865 -0.1637 0.1637 -0.9865 1106.7534 283.8932)" fill-rule="evenodd" clip-rule="evenodd" fill="#EDCEAE" stroke="#FFE2C2" stroke-miterlimit="10" cx="565.071" cy="96.356" rx="2.572" ry="7.117"/>
	<path fill-rule="evenodd" clip-rule="evenodd" fill="#F16739" d="M473.819,173.025c0.482-0.383,6.559,7.521,27.709,1.387
		l-6.848-6.123c-7.584,4.201-14.781-0.658-14.781-0.658L473.819,173.025z"/>
	<path fill-rule="evenodd" clip-rule="evenodd" fill="#EDCEAE" stroke="#FFE2C2" stroke-miterlimit="10" d="M504.237,135.207
		c0,0,1.314-6.365-5.146-9.527c-2.119-1.035-8.363-2.268-9.434,0c-1.072,2.269-3.66,0-3.66,0s-7.086-1.374-10.287,0
		c-8.033,3.451-5.145,9.527-5.145,9.527"/>
	<path fill-rule="evenodd" clip-rule="evenodd" fill="#EDCEAE" stroke="#FFE2C2" stroke-miterlimit="10" d="M479.772,133.129
		c4.443-28.562,2.018-44.686,3.42-45.209l2.805-4.039l6.451,1.202l-0.371,2.837c-3.273,30.805,1.152,47.287,1.152,47.287"/>
	
		<path fill-rule="evenodd" clip-rule="evenodd" stroke="#231F20" stroke-width="1.5" stroke-linecap="round" stroke-linejoin="round" stroke-miterlimit="10" d="
		M559.257,75.362c0,1.821,0.143,3.717-0.053,5.577c-0.111,1.055-0.48,2.524-1.236,2.994c-4.301,2.658-4.18,7.082-4.896,11.223
		c-0.545,3.161-0.967,6.371-1.865,9.436c-2.627,8.955-8.783,14.163-17.896,15.695c-9.062,1.524-17.68-0.152-25.812-4.369
		c-4.727-2.45-8.039-6.267-10.166-11.074c-1.797-4.057-3.432-8.188-5.037-12.324c-1.07-2.752-2.195-5.402-5.756-5.316
		c-3.455,0.082-4.646,2.645-5.762,5.4c-2.082,5.143-4.066,10.354-6.58,15.289c-3.262,6.397-9.523,8.908-15.904,10.969
		c-7.396,2.391-14.902,2.465-22.346,0.274c-7.691-2.267-12.137-7.75-14.072-15.317c-0.957-3.744-1.555-7.584-2.223-11.398
		c-0.6-3.408-1.357-6.562-4.596-8.717c-0.9-0.602-1.016-2.699-1.109-4.137c-0.359-5.503-1.01-4.566,4.168-5.457
		c20.92-3.597,41.623-3.213,61.898,3.787c4.383,1.511,8.711,1.408,13.092,0.122c8.893-2.61,17.84-4.827,27.139-5.655
		C530.024,71.488,551.167,72.809,559.257,75.362z M526.425,76.756c-1.324,0-2.67-0.149-3.971,0.025
		c-5.135,0.689-10.344,1.131-15.354,2.352c-3.855,0.938-7.557,3.376-7.834,7.697c-0.609,9.542,1.662,18.499,9.564,24.605
		c7.23,5.586,15.842,6.279,24.615,4.375c4.094-0.889,7.572-2.979,9.898-6.594c4.008-6.232,6.035-13.004,5.154-20.463
		c-0.432-3.662-2.062-6.604-5.408-8.491C537.891,77.334,532.253,76.621,526.425,76.756z M437.397,77.374
		c-9.33,1.233-13.244,6.075-12.674,15.446c0.078,1.319,0.271,2.637,0.508,3.938c2.289,12.568,7.955,19.291,20.418,19.965
		c10.875,0.584,21.41-3.501,25.578-13.917c1.148-2.874,2.02-5.905,2.637-8.94c1.553-7.648-1.432-12.793-9.012-14.838
		C459.618,77.615,441.135,76.879,437.397,77.374z"/>
	<g>
		<g>
			<path fill-rule="evenodd" clip-rule="evenodd" fill="#848484" d="M330.439,301.191c0.271-0.039,0.704-0.105,1.278-0.188
				c0.364,0.896,0.905,1.785,1.074,2.736c0.241,1.387-0.906,1.15-1.617,1.229c-0.289-0.596-0.411-1.4-0.808-1.57
				c-1.411-0.604-1.851-1.883-2.288-3.082c-0.217-0.594,0.088-1.432,0.319-2.102c0.085-0.244,0.64-0.447,0.977-0.445
				c0.261,0.004,0.703,0.324,0.746,0.561C330.293,299.246,330.339,300.188,330.439,301.191z"/>
			<path fill-rule="evenodd" clip-rule="evenodd" fill="#848484" d="M336.413,291.068c0.424-0.904,0.677-1.443,1.067-2.279
				c0.667,2.189,1.228,4.123,1.854,6.033c0.184,0.553,0.655,1.016,0.803,1.572c0.108,0.41-0.094,0.9-0.158,1.355
				c-0.406-0.113-0.996-0.094-1.188-0.361c-0.86-1.203-1.937-2.287-1.857-4C336.971,292.518,336.551,291.627,336.413,291.068z"/>
			<path fill-rule="evenodd" clip-rule="evenodd" fill="#848484" d="M349.961,325.631c-0.548-0.098-1.096-0.195-1.644-0.293
				c1.94-0.498,2.652,0.08,2.948,2.031c0.058,0.381,0.487,0.707,0.933,1.316c-0.433,0.201-0.918,0.639-1.262,0.551
				c-1.024-0.271-2.067-0.631-2.951-1.197c-0.381-0.242-0.385-1.076-0.56-1.643c0.457-0.061,0.919-0.098,1.368-0.193
				c0.419-0.09,0.826-0.244,1.241-0.369C350.01,325.766,349.988,325.699,349.961,325.631z"/>
			<path fill-rule="evenodd" clip-rule="evenodd" fill="#848484" d="M346.502,337.662c0.748-0.287,1.168-0.443,1.682-0.639
				c0.174,0.225,0.414,0.438,0.539,0.707c0.671,1.449,1.806,2.492,2.938,3.562c0.257,0.244,0.17,0.852,0.243,1.291
				c-0.477-0.09-1.021-0.066-1.412-0.301c-0.768-0.461-1.576-0.965-2.14-1.643C347.641,339.789,347.156,338.742,346.502,337.662z"/>
			<path fill-rule="evenodd" clip-rule="evenodd" fill="#848484" d="M361.789,335.926c1.576,0.074,2.436,0.281,2.428,1.596
				c0,0.158,0.101,0.373,0.225,0.469c1.059,0.834,0.488,2.086,0.784,3.113c0.069,0.24-0.359,0.625-0.561,0.943
				c-0.289-0.182-0.68-0.303-0.85-0.562c-0.401-0.605-0.778-1.254-1.015-1.934C362.427,338.463,362.174,337.334,361.789,335.926z"/>
			<path fill-rule="evenodd" clip-rule="evenodd" fill="#848484" d="M353.709,319.303c1.039-0.48,2.028-0.031,2.061,1.027
				c0.02,0.625,0.158,0.877,0.603,1.223c0.283,0.221,0.495,0.744,0.461,1.104c-0.055,0.557-0.347,1.086-0.54,1.627
				c-0.503-0.289-1.035-0.539-1.493-0.887c-0.184-0.141-0.226-0.49-0.292-0.754C354.237,321.555,353.985,320.465,353.709,319.303z"
				/>
			<path fill-rule="evenodd" clip-rule="evenodd" fill="#848484" d="M360.34,350.113c1.687-1.191,2.591-0.312,3.491,0.846
				c0.348,0.447,1.013,0.645,1.663,0.799c0.735,0.678,0.396,1.525-0.281,1.957c-0.344,0.219-1.346-0.115-1.707-0.514
				c-0.607-0.67-0.939-1.588-1.51-2.619C361.708,350.502,361.024,350.309,360.34,350.113z"/>
			<path fill-rule="evenodd" clip-rule="evenodd" fill="#848484" d="M336.726,319.959c0.894,1.203,1.819,2.385,2.655,3.631
				c0.181,0.264,0.034,0.748,0.039,1.131c-0.515-0.006-1.324,0.191-1.496-0.057c-0.924-1.326-1.774-2.736-1.631-4.447
				C336.439,320.131,336.582,320.045,336.726,319.959z"/>
			<path fill-rule="evenodd" clip-rule="evenodd" fill="#848484" d="M341.776,312.283c0.251-0.459,0.502-0.924,0.711-1.307
				c-0.443-0.438-0.84-0.828-1.507-1.486c2.769,0.629,2.969,2.811,3.803,4.48c0.095,0.189-0.388,0.666-0.604,1.012
				c-0.424-0.336-0.948-0.6-1.243-1.025c-0.33-0.473-0.457-1.09-0.67-1.643C342.102,312.303,341.94,312.295,341.776,312.283z"/>
			<path fill-rule="evenodd" clip-rule="evenodd" fill="#848484" d="M327.31,281.324c0.808,0.318,1.658,0.371,1.414,1.518
				c-0.054,0.238,0.063,0.721,0.197,0.76c1.363,0.385,0.604,1.568,0.873,2.348c0.063,0.186-0.424,0.561-0.656,0.852
				c-0.196-0.283-0.614-0.643-0.55-0.838c0.379-1.131,0.047-1.719-1.064-2.193C326.336,283.26,327.112,282.287,327.31,281.324z"/>
			<path fill-rule="evenodd" clip-rule="evenodd" fill="#848484" d="M370.455,357.111c-0.765-0.967-1.421-1.797-2.045-2.586
				c0.25-0.328,0.683-0.896,1.176-1.539C370.561,353.238,371.45,355.43,370.455,357.111z"/>
			<path fill-rule="evenodd" clip-rule="evenodd" fill="#848484" d="M339.573,277.277c0.41,1.172,0.84,2.117,1.033,3.111
				c0.062,0.326-0.492,0.771-0.764,1.162c-0.295-0.307-0.75-0.562-0.858-0.924C338.676,279.604,338.056,278.488,339.573,277.277z"/>
			<path fill-rule="evenodd" clip-rule="evenodd" fill="#848484" d="M331.916,267.527c1.678,0.85,1.956,1.674,1.231,3.457
				C331.935,270.932,331.206,269.006,331.916,267.527z"/>
			<path fill-rule="evenodd" clip-rule="evenodd" fill="#848484" d="M345.68,292.973c0.523,0.459,1.149,0.826,1.49,1.373
				c0.215,0.342-0.004,0.951-0.026,1.441c-0.429-0.125-0.874-0.213-1.277-0.396c-0.173-0.078-0.237-0.477-0.392-0.508
				c-1.373-0.271-0.781-0.795-0.209-1.354C345.424,293.377,345.535,293.172,345.68,292.973z"/>
		</g>
		<g>
			<path fill-rule="evenodd" clip-rule="evenodd" fill="#848484" d="M648.719,301.191c-0.271-0.039-0.705-0.105-1.277-0.188
				c-0.365,0.896-0.906,1.785-1.074,2.736c-0.242,1.387,0.906,1.15,1.615,1.229c0.289-0.596,0.412-1.4,0.809-1.57
				c1.412-0.604,1.852-1.883,2.289-3.082c0.217-0.594-0.088-1.432-0.32-2.102c-0.084-0.244-0.639-0.447-0.977-0.445
				c-0.26,0.004-0.703,0.324-0.746,0.561C648.864,299.246,648.819,300.188,648.719,301.191z"/>
			<path fill-rule="evenodd" clip-rule="evenodd" fill="#848484" d="M642.745,291.068c-0.424-0.904-0.676-1.443-1.066-2.279
				c-0.668,2.189-1.229,4.123-1.854,6.033c-0.186,0.553-0.656,1.016-0.803,1.572c-0.109,0.41,0.094,0.9,0.158,1.355
				c0.406-0.113,0.996-0.094,1.188-0.361c0.861-1.203,1.938-2.287,1.857-4C642.188,292.518,642.608,291.627,642.745,291.068z"/>
			<path fill-rule="evenodd" clip-rule="evenodd" fill="#848484" d="M629.198,325.631c0.547-0.098,1.096-0.195,1.643-0.293
				c-1.939-0.498-2.652,0.08-2.947,2.031c-0.059,0.381-0.488,0.707-0.934,1.316c0.434,0.201,0.918,0.639,1.262,0.551
				c1.025-0.271,2.068-0.631,2.951-1.197c0.381-0.242,0.385-1.076,0.559-1.643c-0.455-0.061-0.918-0.098-1.367-0.193
				c-0.418-0.09-0.826-0.244-1.24-0.369C629.147,325.766,629.171,325.699,629.198,325.631z"/>
			<path fill-rule="evenodd" clip-rule="evenodd" fill="#848484" d="M632.657,337.662c-0.748-0.287-1.17-0.443-1.684-0.639
				c-0.172,0.225-0.412,0.438-0.537,0.707c-0.672,1.449-1.807,2.492-2.939,3.562c-0.258,0.244-0.17,0.852-0.242,1.291
				c0.475-0.09,1.02-0.066,1.41-0.301c0.77-0.461,1.578-0.965,2.141-1.643C631.518,339.789,632.003,338.742,632.657,337.662z"/>
			<path fill-rule="evenodd" clip-rule="evenodd" fill="#848484" d="M617.368,335.926c-1.574,0.074-2.436,0.281-2.428,1.596
				c0,0.158-0.1,0.373-0.223,0.469c-1.061,0.834-0.488,2.086-0.785,3.113c-0.068,0.24,0.359,0.625,0.561,0.943
				c0.289-0.182,0.68-0.303,0.85-0.562c0.402-0.605,0.777-1.254,1.016-1.934C616.731,338.463,616.983,337.334,617.368,335.926z"/>
			<path fill-rule="evenodd" clip-rule="evenodd" fill="#848484" d="M625.45,319.303c-1.039-0.48-2.027-0.031-2.061,1.027
				c-0.02,0.625-0.158,0.877-0.604,1.223c-0.283,0.221-0.494,0.744-0.461,1.104c0.055,0.557,0.348,1.086,0.541,1.627
				c0.502-0.289,1.033-0.539,1.492-0.887c0.184-0.141,0.227-0.49,0.293-0.754C624.923,321.555,625.173,320.465,625.45,319.303z"/>
			<path fill-rule="evenodd" clip-rule="evenodd" fill="#848484" d="M618.819,350.113c-1.688-1.191-2.592-0.312-3.492,0.846
				c-0.348,0.447-1.012,0.645-1.662,0.799c-0.736,0.678-0.398,1.525,0.281,1.957c0.344,0.219,1.344-0.115,1.707-0.514
				c0.607-0.67,0.939-1.588,1.51-2.619C617.45,350.502,618.135,350.309,618.819,350.113z"/>
			<path fill-rule="evenodd" clip-rule="evenodd" fill="#848484" d="M642.432,319.959c-0.893,1.203-1.818,2.385-2.654,3.631
				c-0.182,0.264-0.035,0.748-0.041,1.131c0.516-0.006,1.326,0.191,1.496-0.057c0.926-1.326,1.775-2.736,1.633-4.447
				C642.719,320.131,642.577,320.045,642.432,319.959z"/>
			<path fill-rule="evenodd" clip-rule="evenodd" fill="#848484" d="M637.384,312.283c-0.252-0.459-0.502-0.924-0.711-1.307
				c0.443-0.438,0.84-0.828,1.506-1.486c-2.768,0.629-2.969,2.811-3.803,4.48c-0.094,0.189,0.389,0.666,0.604,1.012
				c0.424-0.336,0.949-0.6,1.242-1.025c0.332-0.473,0.459-1.09,0.672-1.643C637.057,312.303,637.218,312.295,637.384,312.283z"/>
			<path fill-rule="evenodd" clip-rule="evenodd" fill="#848484" d="M651.848,281.324c-0.807,0.318-1.658,0.371-1.414,1.518
				c0.053,0.238-0.062,0.721-0.197,0.76c-1.363,0.385-0.604,1.568-0.873,2.348c-0.064,0.186,0.424,0.561,0.656,0.852
				c0.197-0.283,0.613-0.643,0.551-0.838c-0.379-1.131-0.047-1.719,1.064-2.193C652.823,283.26,652.048,282.287,651.848,281.324z"/>
			<path fill-rule="evenodd" clip-rule="evenodd" fill="#848484" d="M608.704,357.111c0.764-0.967,1.42-1.797,2.043-2.586
				c-0.248-0.328-0.682-0.896-1.174-1.539C608.598,353.238,607.708,355.43,608.704,357.111z"/>
			<path fill-rule="evenodd" clip-rule="evenodd" fill="#848484" d="M639.587,277.277c-0.41,1.172-0.842,2.117-1.033,3.111
				c-0.064,0.326,0.49,0.771,0.762,1.162c0.297-0.307,0.752-0.562,0.859-0.924C640.481,279.604,641.102,278.488,639.587,277.277z"/>
			<path fill-rule="evenodd" clip-rule="evenodd" fill="#848484" d="M647.243,267.527c-1.678,0.85-1.957,1.674-1.232,3.457
				C647.223,270.932,647.952,269.006,647.243,267.527z"/>
			<path fill-rule="evenodd" clip-rule="evenodd" fill="#848484" d="M633.479,292.973c-0.523,0.459-1.15,0.826-1.49,1.373
				c-0.217,0.342,0.004,0.951,0.025,1.441c0.43-0.125,0.875-0.213,1.277-0.396c0.174-0.078,0.238-0.477,0.393-0.508
				c1.373-0.271,0.781-0.795,0.209-1.354C633.735,293.377,633.624,293.172,633.479,292.973z"/>
		</g>
	</g>
	<path fill-rule="evenodd" clip-rule="evenodd" fill="#353837" d="M526.425,76.756c-1.324,0-2.67-0.149-3.971,0.025
		c-5.135,0.689-10.344,1.131-15.354,2.352c-3.855,0.938-7.557,3.376-7.834,7.697c-0.609,9.542,1.662,18.499,9.564,24.605
		c7.23,5.586,15.842,6.279,24.615,4.375c4.094-0.889,7.572-2.979,9.898-6.594c4.008-6.232,6.035-13.004,5.154-20.463
		c-0.432-3.662-2.062-6.604-5.408-8.491C537.891,77.334,532.253,76.621,526.425,76.756z"/>
	<path fill-rule="evenodd" clip-rule="evenodd" fill="#353837" d="M437.397,77.374c-9.33,1.233-13.244,6.075-12.674,15.446
		c0.078,1.319,0.271,2.637,0.508,3.938c2.289,12.568,7.955,19.291,20.418,19.965c10.875,0.584,21.41-3.501,25.578-13.917
		c1.148-2.874,2.02-5.905,2.637-8.94c1.553-7.648-1.432-12.793-9.012-14.838C459.618,77.615,441.135,76.879,437.397,77.374z"/>
	
		<circle fill-rule="evenodd" clip-rule="evenodd" fill="#231F20" stroke="#000000" stroke-width="1.5" stroke-linecap="round" stroke-linejoin="round" stroke-miterlimit="10" cx="484.828" cy="-12.486" r="37.22"/>
	<g>
		
			<path fill-rule="evenodd" clip-rule="evenodd" fill="#FAAB25" stroke="#231F20" stroke-width="1.5" stroke-linecap="round" stroke-linejoin="round" stroke-miterlimit="10" d="
			M509.507-0.487c-2.402,0.251-4.352,1.055-5.459-2.015c-0.412-1.147-2.781-2.163-4.295-2.214c-2.449-0.081-3.613,1.929-4.049,4.462
			c-6.863,0-13.672,0.021-20.48-0.043c-0.479-0.006-1.219-0.546-1.381-1.001c-0.812-2.272-2.219-3.728-4.738-3.549
			c-2.627,0.187-3.83,1.989-4.311,4.474c-1.094,0-2.092,0-3.123,0c-1.592-5.311,1.379-11.167-1.625-15.874
			c0.584-2.687,1.137-5.238,1.793-8.253c0.514-0.041,1.488-0.188,2.465-0.188c10.939-0.017,21.879,0.03,32.816-0.05
			c1.914-0.014,3.137,0.481,3.955,2.295c0.994,2.208,2.193,4.33,3.41,6.43c0.449,0.772,1.072,1.684,1.834,1.992
			c2.803,1.141,3.512,3.141,3.236,5.975C509.319-5.648,509.507-3.209,509.507-0.487z M464.462-8.762c7.488,0,14.467,0,21.762,0
			c0-3.698,0.078-7.237-0.088-10.766c-0.023-0.527-1.184-1.425-1.83-1.436c-6.252-0.108-12.506-0.064-18.758-0.064
			c0,0.16-0.002,0.321-0.004,0.482c6.461,0,12.92,0,19.91,0c-1.021,1.164-2.035,1.811-2.258,2.664
			c-1.008,3.859-4.176,1.248-6.191,2.074c-1.299,0.531-3.146-0.441-4.744-0.42c-1.68,0.022-3.613,1.078-4.979,0.536
			c-3.32-1.319-2.793,0.759-2.814,2.575C464.448-11.736,464.462-10.355,464.462-8.762z M493.014-21.273
			c-0.812,0.183-2.914,0.115-3.236,0.842c-0.617,1.389-0.447,3.275-0.111,4.851c0.098,0.453,1.867,0.582,2.883,0.794
			c0.445,0.092,0.926,0.016,1.389,0.016c3.852-0.004,3.67-0.011,3.809-3.797C497.885-22.27,495.268-20.814,493.014-21.273z
			 M504.106-14.925c-1.338-2.346-2.434-4.264-3.904-6.842c0,2.835,0,4.765,0,6.842C501.438-14.925,502.524-14.925,504.106-14.925z"
			/>
		
			<path fill-rule="evenodd" clip-rule="evenodd" fill="#FAAB25" stroke="#231F20" stroke-width="1.5" stroke-linecap="round" stroke-linejoin="round" stroke-miterlimit="10" d="
			M500.221,3.023c-1.875-0.101-3.189-1.23-3.301-3.262s1.037-3.357,3.148-3.564c1.986-0.195,3.695,1.391,3.713,3.338
			C503.798,1.359,502.262,2.956,500.221,3.023z"/>
		
			<path fill-rule="evenodd" clip-rule="evenodd" fill="#FAAB25" stroke="#231F20" stroke-width="1.5" stroke-linecap="round" stroke-linejoin="round" stroke-miterlimit="10" d="
			M469.419-3.84c2.18,0.223,3.348,1.383,3.432,3.444c0.078,1.932-1.73,3.594-3.645,3.39c-2.086-0.222-3.186-1.5-3.123-3.574
			C466.147-2.721,467.481-3.691,469.419-3.84z"/>
	</g>
	<path fill-rule="evenodd" clip-rule="evenodd" fill="#949495" d="M482.372,139.394c0,0,12.455-10.407,32.344-8.364
		c19.887,2.045,20.631,27.695,50.15,30.484C537.764,213,477.911,169.135,482.372,139.394z"/>
	<path fill-rule="evenodd" clip-rule="evenodd" fill="#9D9E9F" d="M491.803,139.394c-2.051-6.387-12.455-10.407-32.342-8.364
		c-19.889,2.045-20.633,27.695-50.152,30.484C436.413,213,499.485,166.502,491.803,139.394z"/>
	<path fill="#F16739" d="M387.239,67.888c23.334-24.188,75.754-35.071,100.305-35.772c24.549-0.702,84.494,17.878,100.303,42.786
		c9.627,15.169-3.918,19.168-18.236,9.119c-15.254-10.706-42.086-29.788-82.066-29.788c-39.982,0-58.26,15.751-77.859,26.01
		C390.061,90.513,375.916,79.625,387.239,67.888z"/>
	
		<path fill-rule="evenodd" clip-rule="evenodd" fill="#231F20" stroke="#000000" stroke-width="1.5" stroke-linecap="round" stroke-linejoin="round" stroke-miterlimit="10" d="
		M414.075,316.691c-0.145-1.406-0.262-2.82-0.314-4.238c-0.242-6.434,1.637-9.922,8.439-8.41
		c12.488,2.775,24.941,5.748,37.318,8.986c1.566,0.406,2.664,2.838,3.85,4.428c2.637,3.549,4.439,8.531,7.941,10.459
		c6.928,3.812,7.766,9.211,7.471,15.629c7.564,2.9,15.27,2.746,22.414,0.209c0.609-6.613,4.547-11.559,7.762-17.352
		c9.92-17.881,27.479-16.482,43.111-20.41c1.768-0.445,3.672-0.316,5.477-0.639c6.371-1.139,8.805,1.516,7.928,7.809
		c-0.18,1.285-0.385,2.549-0.602,3.805c4.826-0.168,9.668-0.326,14.52-0.625c0.326-2.943,0.504-5.898,0.521-8.85
		c0.301-49.822-41.586-92.885-90.096-93.01c-48.559-0.125-90.975,42.996-90.895,92.412c0.004,2.578,0.129,5.135,0.355,7.67
		c2.191,0.244,4.525,0.086,6.436,0.564C408.544,315.643,411.329,316.158,414.075,316.691z M421.2,272.814
		c12.465-26.861,41.705-45.021,71.047-43.727c30.055,1.326,57.842,21.553,67.98,49.537c0.418,1.158,0.457,2.457,0.885,4.898
		c-15.379,2.377-30.305,4.816-45.289,6.82c-1.775,0.238-4.201-1.58-5.768-3.039c-12.777-11.914-28.072-11.932-40.922-0.199
		c-1.848,1.688-5.066,3.275-7.309,2.896c-12.117-2.047-24.168-4.555-36.152-7.277C420.393,281.523,418.575,278.482,421.2,272.814z"
		/>
	<g>
		<g>
			<path fill="#231F20" d="M-122.714,260.928h53.834v13.301h-19v101.018h-15.833V274.229h-19V260.928z"/>
		</g>
		<g>
			<path fill="#231F20" d="M-62.073,260.928h24.542c23.117,0,25.492,6.176,25.492,31.193c0,15.357-2.059,22.008-15.042,25.967v0.316
				c10.767,1.109,14.409,6.65,14.409,17.416v24.859c0,4.117,0,9.816,0.95,14.566h-14.884c-1.583-2.85-1.9-5.699-1.9-10.291v-25.809
				c0-10.768-1.9-13.617-12.35-13.617h-5.384v49.717h-15.833V260.928z M-46.24,312.229h4.117c12.508,0,14.25-2.375,14.25-19.475
				c0-16.941-0.95-18.525-10.767-18.525h-7.6V312.229z"/>
		</g>
		<g>
			<path fill="#231F20" d="M52.719,349.438c0,13.301-5.225,26.76-26.758,26.76c-21.692,0-26.918-13.459-26.918-26.76v-88.51h15.834
				v91.201c0,7.76,2.85,11.717,11.084,11.717c8.075,0,10.925-3.957,10.925-11.717v-91.201h15.833V349.438z"/>
		</g>
		<g>
			<path fill="#231F20" d="M62.218,290.062c0-15.992,5.226-30.084,26.759-30.084c15.675,0,22.959,7.916,22.959,20.742v11.4H97.052
				v-7.916c0-7.285-2.533-11.877-9.184-11.877c-8.233,0-9.817,5.859-9.817,19.635v56.051c0,13.457,4.275,15.832,9.342,15.832
				c5.858,0,9.658-4.115,9.658-13.615v-7.918h14.884v12.668c0,12.033-4.909,21.217-23.275,21.217
				c-19.95,0-26.442-10.609-26.442-28.342V290.062z"/>
		</g>
		<g>
			<path fill="#231F20" d="M119.692,260.928h15.834v52.094h0.316l25.017-52.094h15.833l-26.601,53.678l28.5,60.641h-17.733
				l-25.017-57.158h-0.316v57.158h-15.834V260.928z"/>
		</g>
		<g>
			<path fill="#231F20" d="M184.134,260.928h43.067v13.301h-27.234v35.783h25.65v13.301h-25.65v38.635h27.234v13.299h-43.067
				V260.928z"/>
		</g>
		<g>
			<path fill="#231F20" d="M234.007,260.928h24.542c23.117,0,25.492,6.176,25.492,31.193c0,15.357-2.059,22.008-15.042,25.967v0.316
				c10.767,1.109,14.408,6.65,14.408,17.416v24.859c0,4.117,0,9.816,0.95,14.566h-14.883c-1.584-2.85-1.9-5.699-1.9-10.291v-25.809
				c0-10.768-1.9-13.617-12.351-13.617h-5.383v49.717h-15.834V260.928z M249.841,312.229h4.116c12.509,0,14.25-2.375,14.25-19.475
				c0-16.941-0.949-18.525-10.767-18.525h-7.6V312.229z"/>
		</g>
	</g>
	<path fill="#FFFFFF" d="M95.531,129.535"/>
	<path fill="#231F20" d="M13.864,134.613c5.297-6.793,9.301-12.93,14.945-19.793c5.688-6.984,13.043-13.381,18.652-18.205
		c7.84-6.725,12.863-9.007,17.969-11.773c1.352-0.709-0.172-1.555-0.578-1.555c-28.516-5.359-58.164-12.293-86.488-1.799
		c-19.625,7.312-28.207,22.872-24.082,33.262c2.938,7.383,12.645,8.575,21.719,4.133c7.539-3.7,14.516-9.646,19.469-17.322
		c2.766-4.254,8.59-1.176,5.445,6.223c-8.281,19.484-24.125,34.922-43.41,35.578c-16.414,0.537-27.004-11.548-26.969-26.433
		c0.051-29.39,32.777-48.751,67.152-51.64c41.406-3.422,77.681,7.607,132.173,12.586c41.756,3.82,81.792,3.891,123.75-3.371
		c4.95-0.812,8.433,1.574,8.111,5.359c-0.411,5.463-6.004,10.719-19.846,16.406c-15.722,6.5-32.147,8.471-49.337,8.574
		c-41.525,0.26-86.344-11.945-116.543-18.515c0.043,1.331,0.379,2.905-0.727,3.733c-16.727,12.344-31.844,24.878-41.977,42.477
		l-7.961,11.809c-14.961,24.67-30.938,51.275-48.473,69.082c-18.82,19.104-34.457,24.133-51.062,24.271
		c-20.855,0.139-39.234-12.758-41.336-35.059c-1.172-12.379,2.316-23.391,9.32-32.467c6.207-8.092,16.719-14.816,25.602-16.459
		c2.898-0.518,6.785-0.189,8.395,1.729c2.523,2.939,1.789,6.154-0.719,7.451c-6.793,3.459-14.953,9.389-18.988,17.479
		c-3.285,6.604-3.941,14.574,1.062,22.162c8.375,12.656,31.723,13.002,53.438-7.174c5.367-4.926,10.18-9.682,15.074-15.281
		C-12.797,169.139,13.864,134.613,13.864,134.613z"/>
	<path fill="#231F20" d="M123.83,123.566c-24.898,4.808-55.785,6.748-72.853,3.323c-8.657-1.737-25.576-7.712-37.308-7.298
		c-4.856,0.171-9.486,1.115-13.892,3.945c-3.878,2.479-5.429,4.713-5.513,6.998c-0.07,1.584,0.927,2.553,2.322,2.18
		c11.813-3.344,23.331-4.586,35.077-2.229c12.579,2.525,31.433,12.483,56.155,11.85c10.233-0.26,19.99-1.623,29.277-5.676
		c8.175-3.545,11.444-6.738,11.626-9.996C128.868,124.406,126.768,123.025,123.83,123.566z"/>
	<path fill="#231F20" d="M303.628,115.986c0.502-0.864-0.018-1.504-1.123-1.504c-5.758,0-13.312,0-19.311,0
		c-1.418,0-2.162,0.173-2.836,1.504c-2.213,4.236-29.198,44.672-34.211,52.521c-0.846,1.191-1.883,1.02-2.004-0.346
		c-0.502-4.651-4.529-10.011-10.875-12.569c-4.84-1.971-9.561-2.316-14.469-1.677c-8.869,1.193-16.787,5.877-23.736,11.15
		c-8.549,6.5-16.199,14.496-25.033,21.385l-9.828,20.746c2.662-1.244,5.031-2.584,6.854-3.891c1.418-0.984,1.678,0.658,1.643,0.916
		c-2.195,11.74,0.502,25.639,12.172,31.412c13.969,6.881,29.303-2.783,38.119-11.529c0.865-0.83,1.797-0.744,1.885,1.07
		c0.189,3.338,1.693,7.279,4.443,10.062c7.398,7.416,22.318,4.477,37.289-7.123c9.627-7.416,19.69-17.893,28.766-29.01
		c0.346-0.432,0.588-1.123-0.053-1.814c-1.383-1.451-3.389-3.111-4.754-4.391c-0.641-0.52-1.557-0.363-2.074,0.035
		c-9.318,8.85-17.703,18.947-29.821,27.314c-4.098,2.852-10.598,5.15-13.535,1.191c-1.143-1.537-1.004-3.664,0.121-6.447
		C244.782,206.178,300.724,121.018,303.628,115.986z M231.608,189.996c-2.385,5.1-4.562,8.039-7.555,12.465
		c-2.73,4.096-5.826,7.277-9.559,10.355c-5.637,4.666-13.484,9.75-19.951,6.326c-2.887-1.486-4.131-5.514-4.08-8.764
		c0.156-9.182,4.219-18.586,11.756-27.834c9.18-11.307,19.328-17.168,25.984-13.951
		C235.085,171.879,234.684,183.736,231.608,189.996c-0.225,0.482-0.242,0.898-0.121,1.295
		C231.591,191.949,231.938,189.305,231.608,189.996z"/>
	<path fill="#231F20" d="M121.055,169.143c-6.449,5.17-10.542,1.195-15.839,8.244c-2.315,3.08-4.56-0.34-4.767-1.879
		c-0.111-4.594-0.881-9.084-2.276-13.032l0.001-0.003c-0.638-2.276-1.572-4.154-2.734-5.697c-0.126-0.2-0.239-0.417-0.37-0.611
		c-0.332-0.486-0.773-0.895-1.272-1.219c-11.964-11.146-38.444,0.963-44.851,4.898c-16.75,10.289-28.955,27.455-32.76,37.066
		c-1.832,4.617-3.406,7.504-5.438,10.062c-2.73,3.439-6.164,6.553-12.438,12.066c-0.562,0.502-0.984,1.557-0.512,2.541
		c0.641,1.332,3.898,5.93,4.824,6.346c1.027,0.5,2.203-0.209,2.688-0.537c4.391-2.99,9.629-7.693,12.207-10.891
		c0.898-1.107,1.832-0.641,2.309,1.02c2.395,8.559,8.676,15.543,17.363,18.463c15.898,5.377,32.379-2.385,44.828-15.904
		c7.91-8.574,10.762-14.107,13.797-17.857c4.414-5.48,12.559-16.787,22.43-25.664C118.246,176.555,123.856,166.91,121.055,169.143z
		 M79.391,196.842c-4.043,9.561-11.918,18.188-21.176,21.107c-6.094,1.938-12.441,0.986-16.363-4.424
		c-5.387-7.451-3.294-20.5,4.812-31.205c13.564-17.912,45.299-25.811,36.074,5.537C81.76,190.949,80.605,193.969,79.391,196.842z"/>
	<path fill="#231F20" d="M199.509,162.137c-6.449,5.168-11.577,7.682-18.405,14.756c-3,3.107-3.995,0.154-4.202-1.385
		c-0.111-4.594-0.881-9.084-2.276-13.032l0.001-0.003c-0.638-2.276-1.572-4.154-2.734-5.697c-0.126-0.2-0.239-0.417-0.37-0.611
		c-0.332-0.486-0.773-0.895-1.272-1.219c-11.964-11.146-38.444,0.963-44.851,4.898c-16.75,10.289-28.955,27.455-32.76,37.066
		c-1.832,4.617-3.406,7.504-5.438,10.062c-2.73,3.439-6.164,6.553-12.438,12.066c-0.562,0.502-0.984,1.557-0.512,2.541
		c0.641,1.332,17.141-21.896,19.719-25.094c0.898-1.107-1.325,10.123,2.309,21.031c2.808,8.432,8.676,15.543,17.363,18.463
		c15.898,5.377,32.379-2.385,44.828-15.904c7.91-8.574,10.762-14.107,13.797-17.857c4.414-5.48,12.559-16.787,22.43-25.664
		C194.699,176.555,202.309,159.906,199.509,162.137z M155.844,196.842c-4.043,9.561-11.918,18.188-21.176,21.107
		c-6.094,1.938-12.441,0.986-16.363-4.424c-5.387-7.451-3.294-20.5,4.812-31.205c13.564-17.912,45.299-25.811,36.074,5.537
		C158.212,190.949,157.057,193.969,155.844,196.842z"/>
	<path fill="#231F20" d="M90.895,209.129c0,0,2.86-4.762,3.533-0.406s9.592-0.715,9.592-0.715l-3.333-11.934l-7.167,0.99"/>
	<path fill="#231F20" d="M164.537,212.928c0,0,3.237-4.48,3.48-0.08c0.262,4.734,9.642-0.98,9.642-0.98l-3.333-11.932l-7.167,0.988"
		/>
</g>
</svg>
