<?xml version="1.0" encoding="utf-8"?>
<!-- Generator: Adobe Illustrator 16.0.0, SVG Export Plug-In . SVG Version: 6.00 Build 0)  -->
<!DOCTYPE svg PUBLIC "-//W3C//DTD SVG 1.1//EN" "http://www.w3.org/Graphics/SVG/1.1/DTD/svg11.dtd">
<svg version="1.1" id="Layer_1" xmlns="http://www.w3.org/2000/svg" xmlns:xlink="http://www.w3.org/1999/xlink" x="0px" y="0px"
	 width="339.66px" height="470.611px" viewBox="-0.453 -10 339.66 470.611" enable-background="new -0.453 -10 339.66 470.611"
	 xml:space="preserve">
<path fill="#FFFFFF" d="M218.494,200.683"/>
<g>
	<path fill-rule="evenodd" clip-rule="evenodd" fill="#D8D8D7" d="M66.427,266.963c0,0,5.608,129.062-0.669,137.48
		c9.154,1.402,61.685,48.166,105.99,50.504c44.303,2.336,85.693-57.295,102.756-50.504c-9.271-25.252-6.467-142.449-6.467-142.449
		L66.427,266.963z"/>
	<path fill-rule="evenodd" clip-rule="evenodd" fill="#A4A4A4" d="M220.298,295.838c0,0,17.564,21.395,20.881,41.385
		c28.57-22.445,15.475-104.848,15.709-104.504c0.234,0.342-47.111,20.332-47.111,20.332l8.271,41.385L220.298,295.838z"/>
	<path fill-rule="evenodd" clip-rule="evenodd" fill="#A4A4A4" d="M168.568,325.65c11.748-1.754,25.777,9.117,25.777,9.117
		s1.693-21.393,10.316-25.953c8.621-4.559-1.287-65.227-15.65-72.254c-14.365-7.029-21.789,0.963-21.789,0.963
		S156.818,327.402,168.568,325.65z"/>
	<path fill-rule="evenodd" clip-rule="evenodd" fill="#ADADAD" d="M133.64,313.375c0,0,19.672,48.398,53.691,29.109
		c-14.029-6.314-25.709-40.684-12.504-62.779c13.205-22.094,5.02-45.717,5.02-45.717l-31.096,0.482L133.64,313.375z"/>
	<path fill-rule="evenodd" clip-rule="evenodd" fill="#A4A4A4" d="M107.017,281.109c0,0,13.326,46.645,7.717,59.27
		c8.768-2.455,12.625-28.057,14.027-29.635s7.715,14.906,11.223,15.607c-6.662-44.191,22.24-64.184,19.188-87.154
		c-3.055-22.971-11.822-34.545-11.822-34.545l-42.799,5.963L107.017,281.109z"/>
	<path fill-rule="evenodd" clip-rule="evenodd" fill="#ADADAD" d="M78.955,277.25c6.102,1.105,14.033,49.803,11.475,63.129
		c23.602-23.146,14.133-67.572,35.176-91.303c21.043-23.731,16.484-57.4,16.484-57.4l-34.021-8.066
		C108.068,183.609,72.853,276.146,78.955,277.25z"/>
	<path fill-rule="evenodd" clip-rule="evenodd" fill="#ADADAD" d="M185.246,235.971c24.531,26.9,2.828,84.301,35.402,98.797
		c-2.455-18.236,28.068-86.92-10.521-140.987c-3.857-1.754-31.213,7.642-31.213,7.642S160.714,209.07,185.246,235.971z"/>
	<g>
		
			<path fill-rule="evenodd" clip-rule="evenodd" fill="#231F20" stroke="#000000" stroke-width="1.5" stroke-linecap="round" stroke-linejoin="round" stroke-miterlimit="10" d="
			M245.583,378.113c-5.262,30.355-21.771,52.043-51.43,63.414c-10.637,4.082-12.156,2.967-13.023-8.369
			c-0.338-4.432-0.055-8.912-0.055-13.371c0.246,0,0.686-8.939,0.75-13.408c0.008-0.504,0.037-0.994,0.082-1.479
			c-7.145,2.537-14.85,2.691-22.414-0.209c-0.023,0.496-0.051,0.996-0.084,1.504c-0.84,12.502-1.365,25.025-2.055,38.109
			c-33.691-6.84-59.336-35.006-62.566-66.467c-2.746-0.533-5.531-1.049-8.363-1.562c-1.91-0.479-4.244-0.32-6.436-0.564
			c4.109,45.998,44.033,84.143,89.988,84.148c49.455,0.346,85.438-39.961,90.125-82.371
			C255.251,377.787,250.41,377.945,245.583,378.113z"/>
	</g>
	<path fill-rule="evenodd" clip-rule="evenodd" fill="#FFE2C2" d="M267.472,227.35c0,0,112.393,76.088,55.811,174.289
		c-22.914,41.148-62.514,46.158-79.396,41.148c-16.879-5.01-29.592-31.744-14.914-28.758c-7.09-11.223,3.064-15.801,8.947-12.986
		c0,0-8.074-11.244,5.076-14.092c0.281,12.875,12.021,9.373,12.021,9.373c12.152,5.781,36.658,10.34,50.688-42.266
		c14.027-52.609-36.584-96.535-36.584-96.535L267.472,227.35z"/>
	<path fill-rule="evenodd" clip-rule="evenodd" fill="#ADADAD" d="M248.576,164.536c13.006-2.501,19.346,94.735,34.426,120.435
		c-40.684,1.869-63.756-95.979-62.703-96.742C221.349,187.468,235.574,167.036,248.576,164.536z"/>
	<path fill-rule="evenodd" clip-rule="evenodd" fill="#FFE2C2" d="M66.427,235.076c0,0-106.945,69.662-50.362,167.861
		c22.914,41.15,62.515,46.16,79.396,41.15s29.592-31.744,14.914-28.758c7.09-11.223-3.064-15.801-8.947-12.986
		c0,0,8.076-11.244-5.076-14.092c-0.279,12.873-12.02,9.373-12.02,9.373c-12.152,5.781-36.66,10.34-50.688-42.268
		s36.584-96.535,36.584-96.535L66.427,235.076z"/>
	<path fill-rule="evenodd" clip-rule="evenodd" fill="#A4A4A4" d="M71.649,141.754c0,0-11.628,47.818-31.97,70.264
		c33.318,9.119,53.496-41.385,53.496-41.385l-12.461-34.02L71.649,141.754z"/>
	<path fill-rule="evenodd" clip-rule="evenodd" fill="#ADADAD" d="M82.818,150.469c-29.11,21.567-14.73,154.488-29.46,168.166
		c31.916-18.588,23.849-79.514,29.46-105.516s19.99-32.666,20.342-33.718C103.509,178.35,111.927,128.9,82.818,150.469z"/>
	<path fill-rule="evenodd" clip-rule="evenodd" fill="#A4A4A4" d="M70.23,298.854c19.601-5.471,26.265-82.277,50.464-107.528
		c-3.857-4.909-19.99-18.237-19.99-18.237s-15.432,11.574-23.146,48.049C69.841,257.611,70.23,298.854,70.23,298.854z"/>
	<path fill-rule="evenodd" clip-rule="evenodd" fill="#A4A4A4" d="M250.81,145.288c14.027,2.899,12.625,50.245,28.408,56.134
		c-21.395,32.34-39.197-30.088-39.197-30.088S236.781,142.389,250.81,145.288z"/>
	<path fill-rule="evenodd" clip-rule="evenodd" fill="#9D9E9F" d="M229.798,177.9c9.088,7.814,1.287,23.045,10.447,45.064
		c9.162,22.02,23.541,17.904,23.541,17.904s-15.432,28.666-37.877,10.779s-21.248-62.076-21.248-62.076l23.002-11.672
		C227.664,177.9,220.708,170.088,229.798,177.9z"/>
	<path fill-rule="evenodd" clip-rule="evenodd" fill="#FFE2C2" stroke="#FFE2C2" stroke-miterlimit="10" d="M253.279,143.842
		l-1.725-4.539l-10.375-3.975l-31.477-20.553l-34.838-13.656l-64.275,18.8l-30.445,23.923c-4.959,6.303,4.576,35.968,13.031,31.197
		c0.01,0.018,15.895,26.383,76.896,26.383c61.012,0,70.17-26.373,70.174-26.385C248.701,179.811,258.236,150.145,253.279,143.842z"
		/>
	<path fill="#FAAB25" d="M77.558,127.145c0,0,2.805-54.023,4.207-73.663C83.169,33.842,142.509-10,168.525-10
		c29.342,0,82.285,42.812,86.494,67.362c4.209,24.55,0,67.678,0,67.678l-84.891-13.327L77.558,127.145z"/>
	
		<ellipse transform="matrix(0.9865 -0.1637 0.1637 0.9865 -24.5953 16.4665)" fill-rule="evenodd" clip-rule="evenodd" fill="#EDCEAE" stroke="#FFE2C2" stroke-miterlimit="10" cx="87.638" cy="157.503" rx="2.572" ry="7.116"/>
	
		<ellipse transform="matrix(-0.9865 -0.1637 0.1637 -0.9865 462.4785 353.1073)" fill-rule="evenodd" clip-rule="evenodd" fill="#EDCEAE" stroke="#FFE2C2" stroke-miterlimit="10" cx="245.785" cy="157.503" rx="2.572" ry="7.117"/>
	<path fill-rule="evenodd" clip-rule="evenodd" fill="#F16739" d="M154.533,234.172c0.482-0.383,6.559,7.521,27.709,1.387
		l-6.848-6.123c-7.584,4.201-14.781-0.658-14.781-0.658L154.533,234.172z"/>
	<path fill-rule="evenodd" clip-rule="evenodd" fill="#EDCEAE" stroke="#FFE2C2" stroke-miterlimit="10" d="M184.951,196.354
		c0,0,1.314-6.365-5.146-9.527c-2.119-1.035-8.363-2.268-9.434,0c-1.072,2.269-3.66,0-3.66,0s-7.086-1.374-10.287,0
		c-8.033,3.451-5.145,9.527-5.145,9.527"/>
	<path fill-rule="evenodd" clip-rule="evenodd" fill="#EDCEAE" stroke="#FFE2C2" stroke-miterlimit="10" d="M160.486,194.275
		c4.443-28.562,2.018-44.686,3.42-45.209l2.805-4.039l6.451,1.202l-0.371,2.837c-3.273,30.805,1.152,47.287,1.152,47.287"/>
	
		<path fill-rule="evenodd" clip-rule="evenodd" stroke="#231F20" stroke-width="1.5" stroke-linecap="round" stroke-linejoin="round" stroke-miterlimit="10" d="
		M239.97,136.509c0,1.821,0.143,3.717-0.053,5.577c-0.111,1.055-0.48,2.524-1.236,2.994c-4.301,2.658-4.18,7.082-4.896,11.223
		c-0.545,3.161-0.967,6.371-1.865,9.436c-2.627,8.955-8.783,14.163-17.896,15.695c-9.062,1.524-17.68-0.152-25.812-4.369
		c-4.727-2.45-8.039-6.267-10.166-11.074c-1.797-4.057-3.432-8.188-5.037-12.324c-1.07-2.752-2.195-5.402-5.756-5.316
		c-3.455,0.082-4.646,2.645-5.762,5.4c-2.082,5.143-4.066,10.354-6.58,15.289c-3.262,6.397-9.523,8.908-15.904,10.969
		c-7.396,2.391-14.902,2.465-22.346,0.274c-7.691-2.267-12.137-7.75-14.072-15.317c-0.957-3.744-1.555-7.584-2.223-11.398
		c-0.6-3.408-1.357-6.562-4.596-8.717c-0.9-0.602-1.016-2.699-1.109-4.137c-0.359-5.503-1.01-4.566,4.168-5.457
		c20.92-3.597,41.623-3.213,61.898,3.787c4.383,1.511,8.711,1.408,13.092,0.122c8.893-2.61,17.84-4.827,27.139-5.655
		C210.738,132.635,231.88,133.955,239.97,136.509z M207.138,137.902c-1.324,0-2.67-0.149-3.971,0.025
		c-5.135,0.689-10.344,1.131-15.354,2.352c-3.855,0.938-7.557,3.376-7.834,7.697c-0.609,9.542,1.662,18.499,9.564,24.605
		c7.23,5.586,15.842,6.279,24.615,4.375c4.094-0.889,7.572-2.979,9.898-6.594c4.008-6.232,6.035-13.004,5.154-20.463
		c-0.432-3.662-2.062-6.604-5.408-8.491C218.605,138.48,212.966,137.768,207.138,137.902z M118.111,138.521
		c-9.33,1.233-13.244,6.075-12.674,15.446c0.078,1.319,0.271,2.637,0.508,3.938c2.289,12.568,7.955,19.291,20.418,19.965
		c10.875,0.584,21.41-3.501,25.578-13.917c1.148-2.874,2.02-5.905,2.637-8.94c1.553-7.648-1.432-12.793-9.012-14.838
		C140.332,138.762,121.849,138.025,118.111,138.521z"/>
	<g>
		<g>
			<path fill-rule="evenodd" clip-rule="evenodd" fill="#848484" d="M11.152,362.338c0.271-0.039,0.704-0.105,1.278-0.188
				c0.364,0.896,0.905,1.785,1.074,2.736c0.241,1.387-0.906,1.15-1.617,1.229c-0.289-0.596-0.411-1.4-0.808-1.57
				c-1.411-0.604-1.851-1.883-2.288-3.082c-0.217-0.594,0.088-1.432,0.319-2.102c0.085-0.244,0.64-0.447,0.977-0.445
				c0.261,0.004,0.703,0.324,0.746,0.561C11.007,360.393,11.053,361.334,11.152,362.338z"/>
			<path fill-rule="evenodd" clip-rule="evenodd" fill="#848484" d="M17.127,352.215c0.424-0.904,0.677-1.443,1.067-2.279
				c0.667,2.189,1.228,4.123,1.854,6.033c0.184,0.553,0.655,1.016,0.803,1.572c0.108,0.41-0.094,0.9-0.158,1.355
				c-0.406-0.113-0.996-0.094-1.188-0.361c-0.86-1.203-1.937-2.287-1.857-4C17.685,353.664,17.265,352.773,17.127,352.215z"/>
			<path fill-rule="evenodd" clip-rule="evenodd" fill="#848484" d="M30.675,386.777c-0.548-0.098-1.096-0.195-1.644-0.293
				c1.94-0.498,2.652,0.08,2.948,2.031c0.058,0.381,0.487,0.707,0.933,1.316c-0.433,0.201-0.918,0.639-1.262,0.551
				c-1.024-0.271-2.067-0.631-2.951-1.197c-0.381-0.242-0.385-1.076-0.56-1.643c0.457-0.061,0.919-0.098,1.368-0.193
				c0.419-0.09,0.826-0.244,1.241-0.369C30.724,386.912,30.701,386.846,30.675,386.777z"/>
			<path fill-rule="evenodd" clip-rule="evenodd" fill="#848484" d="M27.216,398.809c0.748-0.287,1.168-0.443,1.682-0.639
				c0.174,0.225,0.414,0.438,0.539,0.707c0.671,1.449,1.806,2.492,2.938,3.562c0.257,0.244,0.17,0.852,0.243,1.291
				c-0.477-0.09-1.021-0.066-1.412-0.301c-0.768-0.461-1.576-0.965-2.14-1.643C28.354,400.936,27.869,399.889,27.216,398.809z"/>
			<path fill-rule="evenodd" clip-rule="evenodd" fill="#848484" d="M42.503,397.072c1.576,0.074,2.436,0.281,2.428,1.596
				c0,0.158,0.101,0.373,0.225,0.469c1.059,0.834,0.488,2.086,0.784,3.113c0.069,0.24-0.359,0.625-0.561,0.943
				c-0.289-0.182-0.68-0.303-0.85-0.562c-0.401-0.605-0.778-1.254-1.015-1.934C43.141,399.609,42.888,398.48,42.503,397.072z"/>
			<path fill-rule="evenodd" clip-rule="evenodd" fill="#848484" d="M34.423,380.449c1.039-0.48,2.028-0.031,2.061,1.027
				c0.02,0.625,0.158,0.877,0.603,1.223c0.283,0.221,0.495,0.744,0.461,1.104c-0.055,0.557-0.347,1.086-0.54,1.627
				c-0.503-0.289-1.035-0.539-1.493-0.887c-0.184-0.141-0.226-0.49-0.292-0.754C34.95,382.701,34.698,381.611,34.423,380.449z"/>
			<path fill-rule="evenodd" clip-rule="evenodd" fill="#848484" d="M41.054,411.26c1.687-1.191,2.591-0.312,3.491,0.846
				c0.348,0.447,1.013,0.645,1.663,0.799c0.735,0.678,0.396,1.525-0.281,1.957c-0.344,0.219-1.346-0.115-1.707-0.514
				c-0.607-0.67-0.939-1.588-1.51-2.619C42.422,411.648,41.737,411.455,41.054,411.26z"/>
			<path fill-rule="evenodd" clip-rule="evenodd" fill="#848484" d="M17.439,381.105c0.894,1.203,1.819,2.385,2.655,3.631
				c0.181,0.264,0.034,0.748,0.039,1.131c-0.515-0.006-1.324,0.191-1.496-0.057c-0.924-1.326-1.774-2.736-1.631-4.447
				C17.152,381.277,17.296,381.191,17.439,381.105z"/>
			<path fill-rule="evenodd" clip-rule="evenodd" fill="#848484" d="M22.489,373.43c0.251-0.459,0.502-0.924,0.711-1.307
				c-0.443-0.438-0.84-0.828-1.507-1.486c2.769,0.629,2.969,2.811,3.803,4.48c0.095,0.189-0.388,0.666-0.604,1.012
				c-0.424-0.336-0.948-0.6-1.243-1.025c-0.33-0.473-0.457-1.09-0.67-1.643C22.815,373.449,22.653,373.441,22.489,373.43z"/>
			<path fill-rule="evenodd" clip-rule="evenodd" fill="#848484" d="M8.023,342.471c0.808,0.318,1.658,0.371,1.414,1.518
				c-0.054,0.238,0.063,0.721,0.197,0.76c1.363,0.385,0.604,1.568,0.873,2.348c0.063,0.186-0.424,0.561-0.656,0.852
				c-0.196-0.283-0.614-0.643-0.55-0.838c0.379-1.131,0.047-1.719-1.064-2.193C7.05,344.406,7.825,343.434,8.023,342.471z"/>
			<path fill-rule="evenodd" clip-rule="evenodd" fill="#848484" d="M51.169,418.258c-0.765-0.967-1.421-1.797-2.045-2.586
				c0.25-0.328,0.683-0.896,1.176-1.539C51.274,414.385,52.164,416.576,51.169,418.258z"/>
			<path fill-rule="evenodd" clip-rule="evenodd" fill="#848484" d="M20.286,338.424c0.41,1.172,0.84,2.117,1.033,3.111
				c0.062,0.326-0.492,0.771-0.764,1.162c-0.295-0.307-0.75-0.562-0.858-0.924C19.39,340.75,18.77,339.635,20.286,338.424z"/>
			<path fill-rule="evenodd" clip-rule="evenodd" fill="#848484" d="M12.63,328.674c1.678,0.85,1.956,1.674,1.231,3.457
				C12.648,332.078,11.92,330.152,12.63,328.674z"/>
			<path fill-rule="evenodd" clip-rule="evenodd" fill="#848484" d="M26.394,354.119c0.523,0.459,1.149,0.826,1.49,1.373
				c0.215,0.342-0.004,0.951-0.026,1.441c-0.429-0.125-0.874-0.213-1.277-0.396c-0.173-0.078-0.237-0.477-0.392-0.508
				c-1.373-0.271-0.781-0.795-0.209-1.354C26.138,354.523,26.249,354.318,26.394,354.119z"/>
		</g>
		<g>
			<path fill-rule="evenodd" clip-rule="evenodd" fill="#848484" d="M329.433,362.338c-0.271-0.039-0.705-0.105-1.277-0.188
				c-0.365,0.896-0.906,1.785-1.074,2.736c-0.242,1.387,0.906,1.15,1.615,1.229c0.289-0.596,0.412-1.4,0.809-1.57
				c1.412-0.604,1.852-1.883,2.289-3.082c0.217-0.594-0.088-1.432-0.32-2.102c-0.084-0.244-0.639-0.447-0.977-0.445
				c-0.26,0.004-0.703,0.324-0.746,0.561C329.578,360.393,329.533,361.334,329.433,362.338z"/>
			<path fill-rule="evenodd" clip-rule="evenodd" fill="#848484" d="M323.458,352.215c-0.424-0.904-0.676-1.443-1.066-2.279
				c-0.668,2.189-1.229,4.123-1.854,6.033c-0.186,0.553-0.656,1.016-0.803,1.572c-0.109,0.41,0.094,0.9,0.158,1.355
				c0.406-0.113,0.996-0.094,1.188-0.361c0.861-1.203,1.938-2.287,1.857-4C322.902,353.664,323.322,352.773,323.458,352.215z"/>
			<path fill-rule="evenodd" clip-rule="evenodd" fill="#848484" d="M309.912,386.777c0.547-0.098,1.096-0.195,1.643-0.293
				c-1.939-0.498-2.652,0.08-2.947,2.031c-0.059,0.381-0.488,0.707-0.934,1.316c0.434,0.201,0.918,0.639,1.262,0.551
				c1.025-0.271,2.068-0.631,2.951-1.197c0.381-0.242,0.385-1.076,0.559-1.643c-0.455-0.061-0.918-0.098-1.367-0.193
				c-0.418-0.09-0.826-0.244-1.24-0.369C309.861,386.912,309.884,386.846,309.912,386.777z"/>
			<path fill-rule="evenodd" clip-rule="evenodd" fill="#848484" d="M313.371,398.809c-0.748-0.287-1.17-0.443-1.684-0.639
				c-0.172,0.225-0.412,0.438-0.537,0.707c-0.672,1.449-1.807,2.492-2.939,3.562c-0.258,0.244-0.17,0.852-0.242,1.291
				c0.475-0.09,1.02-0.066,1.41-0.301c0.77-0.461,1.578-0.965,2.141-1.643C312.232,400.936,312.716,399.889,313.371,398.809z"/>
			<path fill-rule="evenodd" clip-rule="evenodd" fill="#848484" d="M298.082,397.072c-1.574,0.074-2.436,0.281-2.428,1.596
				c0,0.158-0.1,0.373-0.223,0.469c-1.061,0.834-0.488,2.086-0.785,3.113c-0.068,0.24,0.359,0.625,0.561,0.943
				c0.289-0.182,0.68-0.303,0.85-0.562c0.402-0.605,0.777-1.254,1.016-1.934C297.445,399.609,297.697,398.48,298.082,397.072z"/>
			<path fill-rule="evenodd" clip-rule="evenodd" fill="#848484" d="M306.164,380.449c-1.039-0.48-2.027-0.031-2.061,1.027
				c-0.02,0.625-0.158,0.877-0.604,1.223c-0.283,0.221-0.494,0.744-0.461,1.104c0.055,0.557,0.348,1.086,0.541,1.627
				c0.502-0.289,1.033-0.539,1.492-0.887c0.184-0.141,0.227-0.49,0.293-0.754C305.636,382.701,305.886,381.611,306.164,380.449z"/>
			<path fill-rule="evenodd" clip-rule="evenodd" fill="#848484" d="M299.533,411.26c-1.688-1.191-2.592-0.312-3.492,0.846
				c-0.348,0.447-1.012,0.645-1.662,0.799c-0.736,0.678-0.398,1.525,0.281,1.957c0.344,0.219,1.344-0.115,1.707-0.514
				c0.607-0.67,0.939-1.588,1.51-2.619C298.164,411.648,298.849,411.455,299.533,411.26z"/>
			<path fill-rule="evenodd" clip-rule="evenodd" fill="#848484" d="M323.146,381.105c-0.893,1.203-1.818,2.385-2.654,3.631
				c-0.182,0.264-0.035,0.748-0.041,1.131c0.516-0.006,1.326,0.191,1.496-0.057c0.926-1.326,1.775-2.736,1.633-4.447
				C323.433,381.277,323.291,381.191,323.146,381.105z"/>
			<path fill-rule="evenodd" clip-rule="evenodd" fill="#848484" d="M318.097,373.43c-0.252-0.459-0.502-0.924-0.711-1.307
				c0.443-0.438,0.84-0.828,1.506-1.486c-2.768,0.629-2.969,2.811-3.803,4.48c-0.094,0.189,0.389,0.666,0.604,1.012
				c0.424-0.336,0.949-0.6,1.242-1.025c0.332-0.473,0.459-1.09,0.672-1.643C317.771,373.449,317.931,373.441,318.097,373.43z"/>
			<path fill-rule="evenodd" clip-rule="evenodd" fill="#848484" d="M332.562,342.471c-0.807,0.318-1.658,0.371-1.414,1.518
				c0.053,0.238-0.062,0.721-0.197,0.76c-1.363,0.385-0.604,1.568-0.873,2.348c-0.064,0.186,0.424,0.561,0.656,0.852
				c0.197-0.283,0.613-0.643,0.551-0.838c-0.379-1.131-0.047-1.719,1.064-2.193C333.537,344.406,332.761,343.434,332.562,342.471z"
				/>
			<path fill-rule="evenodd" clip-rule="evenodd" fill="#848484" d="M289.417,418.258c0.764-0.967,1.42-1.797,2.043-2.586
				c-0.248-0.328-0.682-0.896-1.174-1.539C289.312,414.385,288.421,416.576,289.417,418.258z"/>
			<path fill-rule="evenodd" clip-rule="evenodd" fill="#848484" d="M320.3,338.424c-0.41,1.172-0.842,2.117-1.033,3.111
				c-0.064,0.326,0.49,0.771,0.762,1.162c0.297-0.307,0.752-0.562,0.859-0.924C321.195,340.75,321.816,339.635,320.3,338.424z"/>
			<path fill-rule="evenodd" clip-rule="evenodd" fill="#848484" d="M327.957,328.674c-1.678,0.85-1.957,1.674-1.232,3.457
				C327.937,332.078,328.666,330.152,327.957,328.674z"/>
			<path fill-rule="evenodd" clip-rule="evenodd" fill="#848484" d="M314.193,354.119c-0.523,0.459-1.15,0.826-1.49,1.373
				c-0.217,0.342,0.004,0.951,0.025,1.441c0.43-0.125,0.875-0.213,1.277-0.396c0.174-0.078,0.238-0.477,0.393-0.508
				c1.373-0.271,0.781-0.795,0.209-1.354C314.449,354.523,314.337,354.318,314.193,354.119z"/>
		</g>
	</g>
	<path fill-rule="evenodd" clip-rule="evenodd" fill="#353837" d="M207.138,137.902c-1.324,0-2.67-0.149-3.971,0.025
		c-5.135,0.689-10.344,1.131-15.354,2.352c-3.855,0.938-7.557,3.376-7.834,7.697c-0.609,9.542,1.662,18.499,9.564,24.605
		c7.23,5.586,15.842,6.279,24.615,4.375c4.094-0.889,7.572-2.979,9.898-6.594c4.008-6.232,6.035-13.004,5.154-20.463
		c-0.432-3.662-2.062-6.604-5.408-8.491C218.605,138.48,212.966,137.768,207.138,137.902z"/>
	<path fill-rule="evenodd" clip-rule="evenodd" fill="#353837" d="M118.111,138.521c-9.33,1.233-13.244,6.075-12.674,15.446
		c0.078,1.319,0.271,2.637,0.508,3.938c2.289,12.568,7.955,19.291,20.418,19.965c10.875,0.584,21.41-3.501,25.578-13.917
		c1.148-2.874,2.02-5.905,2.637-8.94c1.553-7.648-1.432-12.793-9.012-14.838C140.332,138.762,121.849,138.025,118.111,138.521z"/>
	
		<circle fill-rule="evenodd" clip-rule="evenodd" fill="#231F20" stroke="#000000" stroke-width="1.5" stroke-linecap="round" stroke-linejoin="round" stroke-miterlimit="10" cx="165.542" cy="48.66" r="37.22"/>
	<g>
		
			<path fill-rule="evenodd" clip-rule="evenodd" fill="#FAAB25" stroke="#231F20" stroke-width="1.5" stroke-linecap="round" stroke-linejoin="round" stroke-miterlimit="10" d="
			M190.22,60.659c-2.402,0.251-4.352,1.055-5.459-2.015c-0.412-1.147-2.781-2.163-4.295-2.214c-2.449-0.081-3.613,1.929-4.049,4.462
			c-6.863,0-13.672,0.021-20.48-0.043c-0.479-0.006-1.219-0.546-1.381-1.001c-0.812-2.272-2.219-3.728-4.738-3.549
			c-2.627,0.187-3.83,1.989-4.311,4.474c-1.094,0-2.092,0-3.123,0c-1.592-5.311,1.379-11.167-1.625-15.874
			c0.584-2.687,1.137-5.238,1.793-8.253c0.514-0.041,1.488-0.188,2.465-0.188c10.939-0.017,21.879,0.03,32.816-0.05
			c1.914-0.014,3.137,0.481,3.955,2.295c0.994,2.208,2.193,4.33,3.41,6.43c0.449,0.772,1.072,1.684,1.834,1.992
			c2.803,1.141,3.512,3.141,3.236,5.975C190.033,55.498,190.22,57.938,190.22,60.659z M145.175,52.385c7.488,0,14.467,0,21.762,0
			c0-3.698,0.078-7.237-0.088-10.766c-0.023-0.527-1.184-1.425-1.83-1.436c-6.252-0.108-12.506-0.064-18.758-0.064
			c0,0.16-0.002,0.321-0.004,0.482c6.461,0,12.92,0,19.91,0c-1.021,1.164-2.035,1.811-2.258,2.664
			c-1.008,3.859-4.176,1.248-6.191,2.074c-1.299,0.531-3.146-0.441-4.744-0.42c-1.68,0.022-3.613,1.078-4.979,0.536
			c-3.32-1.319-2.793,0.759-2.814,2.575C145.162,49.41,145.175,50.791,145.175,52.385z M173.728,39.873
			c-0.812,0.183-2.914,0.115-3.236,0.842c-0.617,1.389-0.447,3.275-0.111,4.851c0.098,0.453,1.867,0.582,2.883,0.794
			c0.445,0.092,0.926,0.016,1.389,0.016c3.852-0.004,3.67-0.011,3.809-3.797C178.599,38.877,175.982,40.332,173.728,39.873z
			 M184.82,46.222c-1.338-2.346-2.434-4.264-3.904-6.842c0,2.835,0,4.765,0,6.842C182.152,46.222,183.238,46.222,184.82,46.222z"/>
		
			<path fill-rule="evenodd" clip-rule="evenodd" fill="#FAAB25" stroke="#231F20" stroke-width="1.5" stroke-linecap="round" stroke-linejoin="round" stroke-miterlimit="10" d="
			M180.935,64.17c-1.875-0.101-3.189-1.23-3.301-3.262s1.037-3.357,3.148-3.564c1.986-0.195,3.695,1.391,3.713,3.338
			C184.511,62.506,182.976,64.103,180.935,64.17z"/>
		
			<path fill-rule="evenodd" clip-rule="evenodd" fill="#FAAB25" stroke="#231F20" stroke-width="1.5" stroke-linecap="round" stroke-linejoin="round" stroke-miterlimit="10" d="
			M150.132,57.307c2.18,0.223,3.348,1.383,3.432,3.444c0.078,1.932-1.73,3.594-3.645,3.39c-2.086-0.222-3.186-1.5-3.123-3.574
			C146.861,58.426,148.195,57.455,150.132,57.307z"/>
	</g>
	<path fill-rule="evenodd" clip-rule="evenodd" fill="#949495" d="M163.085,200.54c0,0,12.455-10.407,32.344-8.364
		c19.887,2.045,20.631,27.695,50.15,30.484C218.478,274.146,158.625,230.281,163.085,200.54z"/>
	<path fill-rule="evenodd" clip-rule="evenodd" fill="#9D9E9F" d="M172.517,200.54c-2.051-6.387-12.455-10.407-32.342-8.364
		c-19.889,2.045-20.633,27.695-50.152,30.484C117.126,274.146,180.199,227.648,172.517,200.54z"/>
	<path fill="#F16739" d="M67.952,129.034c23.334-24.188,75.754-35.071,100.305-35.772c24.549-0.702,84.494,17.878,100.303,42.786
		c9.627,15.169-3.918,19.168-18.236,9.119c-15.254-10.706-42.086-29.788-82.066-29.788c-39.982,0-58.26,15.751-77.859,26.01
		C70.774,151.659,56.63,140.771,67.952,129.034z"/>
	
		<path fill-rule="evenodd" clip-rule="evenodd" fill="#231F20" stroke="#000000" stroke-width="1.5" stroke-linecap="round" stroke-linejoin="round" stroke-miterlimit="10" d="
		M94.789,377.838c-0.145-1.406-0.262-2.82-0.314-4.238c-0.242-6.434,1.637-9.922,8.439-8.41c12.488,2.775,24.941,5.748,37.318,8.986
		c1.566,0.406,2.664,2.838,3.85,4.428c2.637,3.549,4.439,8.531,7.941,10.459c6.928,3.812,7.766,9.211,7.471,15.629
		c7.564,2.9,15.27,2.746,22.414,0.209c0.609-6.613,4.547-11.559,7.762-17.352c9.92-17.881,27.479-16.482,43.111-20.41
		c1.768-0.445,3.672-0.316,5.477-0.639c6.371-1.139,8.805,1.516,7.928,7.809c-0.18,1.285-0.385,2.549-0.602,3.805
		c4.826-0.168,9.668-0.326,14.52-0.625c0.326-2.943,0.504-5.898,0.521-8.85c0.301-49.822-41.586-92.885-90.096-93.01
		c-48.559-0.125-90.975,42.996-90.895,92.412c0.004,2.578,0.129,5.135,0.355,7.67c2.191,0.244,4.525,0.086,6.436,0.564
		C89.257,376.789,92.042,377.305,94.789,377.838z M101.914,333.961c12.465-26.861,41.705-45.021,71.047-43.727
		c30.055,1.326,57.842,21.553,67.98,49.537c0.418,1.158,0.457,2.457,0.885,4.898c-15.379,2.377-30.305,4.816-45.289,6.82
		c-1.775,0.238-4.201-1.58-5.768-3.039c-12.777-11.914-28.072-11.932-40.922-0.199c-1.848,1.688-5.066,3.275-7.309,2.896
		c-12.117-2.047-24.168-4.555-36.152-7.277C101.107,342.67,99.289,339.629,101.914,333.961z"/>
</g>
</svg>
