<?xml version="1.0" encoding="utf-8"?>
<!-- Generator: Adobe Illustrator 16.0.0, SVG Export Plug-In . SVG Version: 6.00 Build 0)  -->
<!DOCTYPE svg PUBLIC "-//W3C//DTD SVG 1.1//EN" "http://www.w3.org/Graphics/SVG/1.1/DTD/svg11.dtd">
<svg version="1.1" id="Layer_1" xmlns="http://www.w3.org/2000/svg" xmlns:xlink="http://www.w3.org/1999/xlink" x="0px" y="0px"
	 width="426.535px" height="311.555px" viewBox="60.537 -54.566 426.535 311.555"
	 enable-background="new 60.537 -54.566 426.535 311.555" xml:space="preserve">
<g>
	<g>
		<path fill="#231F20" d="M701.537,1203.719h53.834v13.301h-19v101.018h-15.834V1217.02h-19V1203.719z"/>
	</g>
	<g>
		<path fill="#231F20" d="M762.178,1203.719h24.541c23.117,0,25.492,6.176,25.492,31.193c0,15.357-2.059,22.008-15.041,25.967v0.316
			c10.766,1.109,14.408,6.65,14.408,17.416v24.859c0,4.117,0,9.816,0.95,14.566h-14.884c-1.584-2.85-1.9-5.699-1.9-10.291v-25.809
			c0-10.768-1.9-13.617-12.35-13.617h-5.384v49.717h-15.833V1203.719z M778.011,1255.02h4.117c12.509,0,14.25-2.375,14.25-19.475
			c0-16.941-0.95-18.525-10.767-18.525h-7.601V1255.02z"/>
	</g>
	<g>
		<path fill="#231F20" d="M876.969,1292.229c0,13.301-5.225,26.76-26.758,26.76c-21.693,0-26.918-13.459-26.918-26.76v-88.51h15.834
			v91.201c0,7.76,2.85,11.717,11.084,11.717c8.074,0,10.924-3.957,10.924-11.717v-91.201h15.834V1292.229z"/>
	</g>
	<g>
		<path fill="#231F20" d="M886.469,1232.854c0-15.992,5.225-30.084,26.758-30.084c15.676,0,22.959,7.916,22.959,20.742v11.4h-14.883
			v-7.916c0-7.285-2.533-11.877-9.184-11.877c-8.234,0-9.817,5.859-9.817,19.635v56.051c0,13.457,4.275,15.832,9.343,15.832
			c5.857,0,9.658-4.115,9.658-13.615v-7.918h14.883v12.668c0,12.033-4.908,21.217-23.275,21.217
			c-19.949,0-26.441-10.609-26.441-28.342V1232.854z"/>
	</g>
	<g>
		<path fill="#231F20" d="M943.942,1203.719h15.834v52.094h0.316l25.018-52.094h15.834l-26.602,53.678l28.501,60.641H985.11
			l-25.018-57.158h-0.316v57.158h-15.834V1203.719z"/>
	</g>
	<g>
		<path fill="#231F20" d="M1008.385,1203.719h43.066v13.301h-27.233v35.783h25.649v13.301h-25.649v38.635h27.233v13.299h-43.066
			V1203.719z"/>
	</g>
	<g>
		<path fill="#231F20" d="M1058.258,1203.719h24.541c23.117,0,25.492,6.176,25.492,31.193c0,15.357-2.059,22.008-15.041,25.967
			v0.316c10.766,1.109,14.408,6.65,14.408,17.416v24.859c0,4.117,0,9.816,0.949,14.566h-14.883c-1.584-2.85-1.9-5.699-1.9-10.291
			v-25.809c0-10.768-1.9-13.617-12.35-13.617h-5.383v49.717h-15.834V1203.719z M1074.092,1255.02h4.115
			c12.51,0,14.25-2.375,14.25-19.475c0-16.941-0.949-18.525-10.766-18.525h-7.6V1255.02z"/>
	</g>
</g>
<path fill="#231F20" d="M838.114,1077.405c5.297-6.793,9.301-12.93,14.945-19.793c5.688-6.984,13.043-13.381,18.652-18.205
	c7.84-6.725,12.863-9.007,17.969-11.773c1.352-0.709-0.172-1.555-0.578-1.555c-28.516-5.359-58.164-12.293-86.488-1.799
	c-19.625,7.312-28.207,22.872-24.082,33.262c2.938,7.383,12.645,8.575,21.719,4.133c7.539-3.7,14.516-9.646,19.469-17.322
	c2.766-4.254,8.59-1.176,5.445,6.223c-8.281,19.484-24.125,34.922-43.41,35.578c-16.414,0.537-27.004-11.548-26.969-26.433
	c0.051-29.39,32.777-48.751,67.152-51.64c41.406-3.422,77.682,7.607,132.174,12.586c41.756,3.82,81.791,3.891,123.75-3.371
	c4.949-0.812,8.432,1.574,8.111,5.359c-0.412,5.463-6.004,10.719-19.846,16.406c-15.723,6.5-32.148,8.471-49.338,8.574
	c-41.525,0.26-86.344-11.945-116.543-18.515c0.043,1.331,0.379,2.905-0.727,3.733c-16.727,12.344-31.844,24.878-41.977,42.477
	l-7.961,11.809c-14.961,24.67-30.938,51.275-48.473,69.082c-18.82,19.104-34.457,24.133-51.062,24.271
	c-20.855,0.139-39.234-12.758-41.336-35.059c-1.172-12.379,2.316-23.391,9.32-32.467c6.207-8.092,16.719-14.816,25.602-16.459
	c2.898-0.518,6.785-0.189,8.395,1.729c2.523,2.939,1.789,6.154-0.719,7.451c-6.793,3.459-14.953,9.389-18.988,17.479
	c-3.285,6.604-3.941,14.574,1.062,22.162c8.375,12.656,31.723,13.002,53.438-7.174c5.367-4.926,10.18-9.682,15.074-15.281
	C811.453,1111.93,838.114,1077.405,838.114,1077.405z"/>
<path fill="#231F20" d="M948.08,1066.358c-24.898,4.808-55.785,6.748-72.853,3.323c-8.657-1.737-25.576-7.712-37.308-7.298
	c-4.856,0.171-9.486,1.115-13.893,3.945c-3.878,2.479-5.428,4.713-5.513,6.998c-0.07,1.584,0.927,2.553,2.321,2.18
	c11.814-3.344,23.332-4.586,35.078-2.229c12.578,2.525,31.433,12.483,56.154,11.85c10.233-0.26,19.99-1.623,29.277-5.676
	c8.174-3.545,11.443-6.738,11.625-9.996C953.119,1067.198,951.018,1065.817,948.08,1066.358z"/>
<path fill="#231F20" d="M945.305,1111.934c-6.449,5.17-10.541,1.195-15.838,8.244c-2.316,3.08-4.561-0.34-4.768-1.879
	c-0.11-4.594-0.881-9.084-2.275-13.032l0.001-0.003c-0.638-2.276-1.572-4.154-2.733-5.697c-0.127-0.2-0.24-0.417-0.371-0.611
	c-0.332-0.486-0.772-0.895-1.271-1.219c-11.965-11.146-38.445,0.963-44.852,4.898c-16.75,10.289-28.955,27.455-32.76,37.066
	c-1.832,4.617-3.406,7.504-5.438,10.062c-2.73,3.439-6.164,6.553-12.438,12.066c-0.562,0.502-0.984,1.557-0.512,2.541
	c0.641,1.332,3.898,5.93,4.824,6.346c1.027,0.5,2.203-0.209,2.688-0.537c4.391-2.99,9.629-7.693,12.207-10.891
	c0.898-1.107,1.832-0.641,2.309,1.02c2.395,8.559,8.676,15.543,17.363,18.463c15.898,5.377,32.379-2.385,44.828-15.904
	c7.91-8.574,10.762-14.107,13.797-17.857c4.414-5.48,12.559-16.787,22.43-25.664
	C942.496,1119.346,948.106,1109.702,945.305,1111.934z M903.641,1139.633c-4.043,9.561-11.918,18.188-21.176,21.107
	c-6.094,1.938-12.441,0.986-16.363-4.424c-5.387-7.451-3.294-20.5,4.812-31.205c13.564-17.912,45.3-25.811,36.074,5.537
	C906.01,1133.741,904.856,1136.76,903.641,1139.633z"/>
<g>
	<polygon fill="#231F20" points="60.537,155.02 79.537,155.02 79.537,256.038 95.371,256.038 95.371,155.02 114.371,155.02 
		114.371,141.719 60.537,141.719 	"/>
	<path fill="#231F20" d="M170.578,216.612c0-10.766-3.642-16.307-14.409-17.416v-0.316c12.983-3.959,15.042-10.609,15.042-25.967
		c0-25.018-2.375-31.193-25.492-31.193h-24.542v114.318h15.833v-49.717h5.384c10.45,0,12.35,2.85,12.35,13.617v25.809
		c0,4.592,0.316,7.441,1.9,10.291h14.884c-0.95-4.75-0.95-10.449-0.95-14.566V216.612z M141.128,193.02h-4.117v-38h7.6
		c9.817,0,10.767,1.584,10.767,18.525C155.378,190.645,153.636,193.02,141.128,193.02z"/>
	<path fill="#231F20" d="M220.135,232.92c0,7.76-2.85,11.717-10.924,11.717c-8.234,0-11.084-3.957-11.084-11.717v-91.201h-15.834
		v88.51c0,13.301,5.226,26.76,26.918,26.76c21.534,0,26.758-13.459,26.758-26.76v-88.51h-15.834V232.92z"/>
	<path fill="#231F20" d="M272.227,140.77c-21.533,0-26.758,14.092-26.758,30.084v57.793c0,17.732,6.492,28.342,26.441,28.342
		c18.367,0,23.275-9.184,23.275-21.217v-12.668h-14.883v7.918c0,9.5-3.801,13.615-9.658,13.615c-5.067,0-9.343-2.375-9.343-15.832
		v-56.051c0-13.775,1.583-19.635,9.817-19.635c6.65,0,9.184,4.592,9.184,11.877v7.916h14.883v-11.4
		C295.186,148.686,287.903,140.77,272.227,140.77z"/>
	<polygon fill="#231F20" points="359.944,141.719 344.11,141.719 319.092,193.813 318.776,193.813 318.776,141.719 302.942,141.719 
		302.942,256.038 318.776,256.038 318.776,198.879 319.092,198.879 344.11,256.038 361.843,256.038 333.342,195.397 	"/>
	<polygon fill="#231F20" points="367.385,256.038 410.451,256.038 410.451,242.739 383.218,242.739 383.218,204.104 
		408.867,204.104 408.867,190.803 383.218,190.803 383.218,155.02 410.451,155.02 410.451,141.719 367.385,141.719 	"/>
	<path fill="#231F20" d="M466.658,216.612c0-10.766-3.643-16.307-14.408-17.416v-0.316c12.982-3.959,15.041-10.609,15.041-25.967
		c0-25.018-2.375-31.193-25.492-31.193h-24.541v114.318h15.834v-49.717h5.383c10.449,0,12.35,2.85,12.35,13.617v25.809
		c0,4.592,0.316,7.441,1.9,10.291h14.883c-0.949-4.75-0.949-10.449-0.949-14.566V216.612z M437.207,193.02h-4.115v-38h7.6
		c9.816,0,10.766,1.584,10.766,18.525C451.457,190.645,449.717,193.02,437.207,193.02z"/>
	<path fill="#231F20" d="M109.048,118.493c16.605-0.139,32.242-5.168,51.062-24.271c17.535-17.807,33.512-44.412,48.473-69.082
		l7.96-11.809c0.288-0.5,0.594-0.981,0.89-1.474c12.523,3.19,30.513,11.863,53.636,11.271c10.233-0.26,19.99-1.623,29.277-5.676
		c8.174-3.545,11.443-6.738,11.625-9.996c0.148-2.258-1.953-3.639-4.891-3.098c-24.898,4.808-55.785,6.748-72.853,3.323
		c-3.127-0.627-7.34-1.809-11.989-3.042c9.723-13.228,22.447-23.576,36.281-33.786c1.105-0.828,0.77-2.402,0.727-3.733
		c30.199,6.569,75.018,18.774,116.543,18.515c17.189-0.104,33.615-2.074,49.338-8.574c13.842-5.688,19.434-10.943,19.846-16.406
		c0.32-3.785-3.162-6.172-8.111-5.359c-41.959,7.262-81.994,7.191-123.75,3.371c-54.492-4.979-90.768-16.008-132.173-12.586
		c-34.375,2.889-67.102,22.25-67.152,51.64c-0.035,14.885,10.555,26.97,26.969,26.433c19.285-0.656,35.129-16.094,43.41-35.578
		c3.145-7.398-2.68-10.477-5.445-6.223c-4.953,7.676-11.93,13.622-19.469,17.322c-9.074,4.442-18.781,3.25-21.719-4.133
		c-4.125-10.39,4.457-25.949,24.082-33.262c28.324-10.494,57.972-3.561,86.488,1.799c0.406,0,1.93,0.846,0.578,1.555
		c-5.105,2.767-10.129,5.049-17.969,11.773c-5.609,4.824-12.965,11.221-18.652,18.205c-1.599,1.944-3.059,3.826-4.46,5.685
		c-3.766-0.642-7.424-1.028-10.679-0.914c-4.856,0.171-9.486,1.115-13.892,3.945c-3.878,2.479-5.429,4.713-5.513,6.998
		c-0.07,1.584,0.927,2.553,2.322,2.18c7.168-2.029,14.227-3.277,21.294-3.423c-1.285,1.745-2.604,3.509-4.017,5.322
		c0,0-26.66,34.525-36.219,45.469c-4.895,5.6-9.707,10.355-15.074,15.281c-21.715,20.176-45.062,19.83-53.438,7.174
		c-5.004-7.588-4.348-15.559-1.062-22.162c4.035-8.09,12.195-14.02,18.988-17.479c2.508-1.297,3.242-4.512,0.719-7.451
		c-1.609-1.918-5.496-2.246-8.395-1.729c-8.883,1.643-19.395,8.367-25.602,16.459c-7.004,9.076-10.492,20.088-9.32,32.467
		C69.813,105.735,88.192,118.631,109.048,118.493z"/>
	<path fill="#231F20" d="M486.879-3.222c0.502-0.864-0.018-1.504-1.123-1.504c-5.758,0-13.312,0-19.311,0
		c-1.418,0-2.162,0.173-2.836,1.504c-2.213,4.236-29.198,44.672-34.212,52.521c-0.846,1.191-1.883,1.02-2.004-0.346
		c-0.502-4.651-4.529-10.011-10.875-12.569c-4.84-1.971-9.561-2.316-14.469-1.677c-8.869,1.193-16.787,5.877-23.736,11.15
		c-1.617,1.229-3.195,2.524-4.762,3.843c-2.895,2.131-5.841,4.505-9.198,7.983c-3,3.107-3.994,0.154-4.201-1.385
		c-0.111-4.594-0.881-9.084-2.276-13.032l0.001-0.003c-0.638-2.276-1.572-4.154-2.733-5.697c-0.126-0.2-0.239-0.417-0.37-0.611
		c-0.332-0.486-0.773-0.895-1.272-1.219c-11.964-11.146-38.444,0.963-44.851,4.898c-6.99,4.294-13.173,9.788-18.3,15.428
		c-0.614,0.567-1.24,1.259-1.884,2.115c-2.316,3.08-4.561-0.34-4.768-1.879c-0.11-4.594-0.881-9.084-2.275-13.032l0.001-0.003
		c-0.638-2.276-1.572-4.154-2.733-5.697c-0.127-0.2-0.24-0.417-0.371-0.611c-0.332-0.486-0.772-0.895-1.271-1.219
		c-11.965-11.146-38.445,0.963-44.852,4.898c-16.75,10.289-28.955,27.455-32.759,37.066c-1.832,4.617-3.406,7.504-5.438,10.062
		c-2.73,3.439-6.164,6.553-12.438,12.066c-0.562,0.502-0.984,1.557-0.512,2.541c0.641,1.332,3.898,5.93,4.824,6.346
		c1.027,0.5,2.203-0.209,2.688-0.537c4.391-2.99,9.629-7.693,12.207-10.891c0.898-1.107,1.832-0.641,2.309,1.02
		c2.395,8.559,8.676,15.543,17.363,18.463c15.898,5.377,32.379-2.385,44.828-15.904c4.054-4.394,6.774-7.985,8.877-10.951
		l-0.001,0.003c0,0,0.009-0.015,0.013-0.02c0.222-0.313,0.439-0.623,0.648-0.922c0.887-1.121,2.405-2.486,2.871,0.536
		c0,0.002,0.002,0.004,0.002,0.006c0.301,2.78,0.854,5.796,1.852,8.789c2.809,8.432,8.676,15.543,17.363,18.463
		c15.898,5.377,32.379-2.385,44.828-15.904c2.458-2.664,4.426-5.034,6.064-7.148l0,0l0.002-0.002
		c0.057-0.074,0.109-0.144,0.165-0.216c0.66-0.838,3.104-3.665,3.313,0.138c0.002,0.034,0.009,0.061,0.012,0.094
		c0.303,9.248,3.982,18.311,12.841,22.693c13.969,6.881,29.303-2.783,38.119-11.529c0.865-0.83,1.797-0.744,1.885,1.07
		c0.189,3.338,1.693,7.279,4.443,10.062c7.398,7.416,22.318,4.477,37.289-7.123c9.628-7.416,19.69-17.893,28.767-29.01
		c0.346-0.432,0.588-1.123-0.053-1.814c-1.383-1.451-3.389-3.111-4.754-4.391c-0.641-0.52-1.557-0.363-2.074,0.035
		c-9.318,8.85-17.703,18.947-29.821,27.314c-4.098,2.852-10.598,5.15-13.535,1.191c-1.143-1.537-1.004-3.664,0.121-6.447
		C428.032,86.969,483.975,1.809,486.879-3.222z M241.465,98.741c-6.094,1.938-12.441,0.986-16.363-4.424
		c-5.387-7.451-3.294-20.5,4.812-31.205c13.564-17.912,45.3-25.811,36.074,5.537c-0.979,3.092-2.133,6.111-3.348,8.984
		C258.598,87.194,250.723,95.821,241.465,98.741z M339.094,77.633c-4.043,9.561-11.918,18.188-21.176,21.107
		c-6.094,1.938-12.441,0.986-16.363-4.424c-5.387-7.451-3.295-20.5,4.812-31.205c13.564-17.912,45.299-25.811,36.074,5.537
		C341.463,71.741,340.308,74.76,339.094,77.633z M414.859,70.788c-2.385,5.1-4.562,8.039-7.555,12.465
		c-2.73,4.096-5.826,7.277-9.559,10.355c-5.637,4.666-13.484,9.75-19.951,6.326c-2.887-1.486-4.131-5.514-4.08-8.764
		c0.156-9.182,4.219-18.586,11.756-27.834c9.18-11.307,19.328-17.168,25.984-13.951C418.335,52.67,417.935,64.528,414.859,70.788z"
		/>
</g>
</svg>
